<svg id="Calque_1" data-name="Calque 1" xmlns="http://www.w3.org/2000/svg" xmlns:xlink="http://www.w3.org/1999/xlink" viewBox="0 0 283.59 295.82"><defs><style>.cls-1,.cls-19,.cls-21,.cls-7,.cls-8{fill:none;}.cls-2{fill:#a94846;}.cls-3{fill:#fda651;}.cls-4{fill:#1e2046;}.cls-5{opacity:0.35;}.cls-6{fill:#fff;}.cls-7{stroke:#753231;stroke-linecap:round;stroke-width:0.48px;}.cls-19,.cls-21,.cls-23,.cls-7,.cls-8{stroke-miterlimit:10;}.cls-8{stroke:#72b01d;stroke-width:0.74px;}.cls-9{fill:#753231;}.cls-10{fill:#fd7a56;opacity:0.34;}.cls-10,.cls-12,.cls-24{isolation:isolate;}.cls-11,.cls-12{opacity:0.5;}.cls-12{fill:#ffc56b;}.cls-13{fill:#a5e250;}.cls-14{fill:#fff8ed;}.cls-15{fill:#679e1a;}.cls-16,.cls-24{fill:#ff937e;}.cls-17{fill:#d4635f;}.cls-18{fill:#72b01d;}.cls-19{stroke:#fff;stroke-width:0.52px;}.cls-20{fill:#45a2b9;}.cls-21{stroke:#d4635f;stroke-width:0.97px;}.cls-22{opacity:0.53;}.cls-23{fill:#2a3e5e;stroke:#2a3e5e;stroke-width:0.22px;}.cls-24{opacity:0.76;}.cls-25{fill:#020f2b;}.cls-26{clip-path:url(#clip-path);}</style><clipPath id="clip-path" transform="translate(-58.63 -61.18)"><path class="cls-1" d="M199.69,126.19,190.57,150s-36.81-30.16-45.94-18l-8.35-6.88.05-.35-6.22,4.42a58.53,58.53,0,0,0-5.71,3.82c-13.81,3.48-48,42.26-48.89,49.6L115.37,208c1.06,12.52,1.95,21.93,1.95,21.93l57.44-2-5.64-61.11c8.76,5,18.88,8.29,29,7.46,1.66-.13,3.19-.56,3.77-2.08l12.8-38.53Zm-90.82,53.48s1.66-1.34,4.06-3.61c.14,2.24.3,4.54.45,6.85Z"/></clipPath></defs><g id="Calque_2" data-name="Calque 2"><g id="Calque_2-2" data-name="Calque 2-2"><polygon class="cls-2" points="223.46 272.99 227.01 292.33 204.12 293.04 214.24 284.17 213.34 274.76 223.46 272.99"/><path class="cls-3" d="M270.67,345.92l-15,8.87c-.52.38-.15,1,.58,1,0,0,30.17,0,30.2-.35.19-2-.28-1.78-.64-3.57-.05-.24-7,1.53-7.45.72C277.84,351.54,271,345.66,270.67,345.92Z" transform="translate(-58.63 -61.18)"/><polygon class="cls-2" points="279.18 272.99 282.73 292.33 259.84 293.04 269.96 284.17 269.07 274.76 279.18 272.99"/><path class="cls-3" d="M326.39,345.92l-15,8.87c-.52.38-.15,1,.58,1,0,0,30.17,0,30.2-.35.2-2-.28-1.78-.64-3.57-.05-.24-7,1.53-7.46.72C333.55,351.54,326.73,345.66,326.39,345.92Z" transform="translate(-58.63 -61.18)"/><path class="cls-4" d="M304.88,176.82a88.41,88.41,0,0,1,9.65,24.36c3.06,12,24.64,119.87,26.08,141.62-3.77.91-10.46.83-12.84.69-7.57-21.71-30.54-97.15-33.78-110.83a1.77,1.77,0,0,0-3.49.51c-1.13,20.08-4.3,81.35-3.61,108.09-2,1-13.07,1.82-15.35,1.54C269.05,316,257.11,209.28,277,176.41,286.09,175.16,295.66,176.55,304.88,176.82Z" transform="translate(-58.63 -61.18)"/><g class="cls-5"><path class="cls-6" d="M273.05,219.31a1.2,1.2,0,1,0-1.2-1.2A1.19,1.19,0,0,0,273.05,219.31Z" transform="translate(-58.63 -61.18)"/><path class="cls-6" d="M285.13,237.05a1.2,1.2,0,1,0-1.2-1.19A1.2,1.2,0,0,0,285.13,237.05Z" transform="translate(-58.63 -61.18)"/><path class="cls-6" d="M270.92,256.93a1.2,1.2,0,1,0-1.2-1.2A1.2,1.2,0,0,0,270.92,256.93Z" transform="translate(-58.63 -61.18)"/><path class="cls-6" d="M280.5,272.19a1.2,1.2,0,1,0-1.19-1.2A1.2,1.2,0,0,0,280.5,272.19Z" transform="translate(-58.63 -61.18)"/><path class="cls-6" d="M275.53,291a1.2,1.2,0,1,0-1.2-1.2A1.2,1.2,0,0,0,275.53,291Z" transform="translate(-58.63 -61.18)"/><path class="cls-6" d="M281.21,304.84a1.2,1.2,0,1,0-1.1-1.1A1.21,1.21,0,0,0,281.21,304.84Z" transform="translate(-58.63 -61.18)"/><path class="cls-6" d="M279.79,326.13a1.2,1.2,0,1,0-1.2-1.2A1.2,1.2,0,0,0,279.79,326.13Z" transform="translate(-58.63 -61.18)"/><path class="cls-6" d="M292.93,218.24a1.2,1.2,0,1,0-1.2-1.19A1.19,1.19,0,0,0,292.93,218.24Z" transform="translate(-58.63 -61.18)"/><path class="cls-6" d="M303.43,234.08v.2a1.21,1.21,0,0,0,2.41,0v-.2a1.21,1.21,0,0,0-2.41,0v.2a1.21,1.21,0,0,0,2.41,0v-.2a1.21,1.21,0,0,0-2.41,0Z" transform="translate(-58.63 -61.18)"/><path class="cls-6" d="M312.09,212.21a1.2,1.2,0,1,0-1.2-1.2A1.2,1.2,0,0,0,312.09,212.21Z" transform="translate(-58.63 -61.18)"/><path class="cls-6" d="M319.18,254.09a1.2,1.2,0,1,0-1.19-1.2A1.19,1.19,0,0,0,319.18,254.09Z" transform="translate(-58.63 -61.18)"/><path class="cls-6" d="M313.51,275.74a1.2,1.2,0,1,0-1.1-1.1A1.21,1.21,0,0,0,313.51,275.74Z" transform="translate(-58.63 -61.18)"/><path class="cls-6" d="M328.06,293.13a1.2,1.2,0,1,0-1.2-1.2A1.21,1.21,0,0,0,328.06,293.13Z" transform="translate(-58.63 -61.18)"/><path class="cls-6" d="M323.8,309.1a1.21,1.21,0,0,0,1.1-1.3,1.2,1.2,0,0,0-1.1-1.1,1.2,1.2,0,0,0,0,2.4Z" transform="translate(-58.63 -61.18)"/><path class="cls-6" d="M333,327.91a1.21,1.21,0,1,0-1.09-1.1A1.21,1.21,0,0,0,333,327.91Z" transform="translate(-58.63 -61.18)"/></g><path class="cls-4" d="M276.65,177.1l40.29,33.36s-5.85-21.55-12.5-34.05Z" transform="translate(-58.63 -61.18)"/><path class="cls-2" d="M231.17,150.85c4.08,1.43,6.39,2.13,8.4,3.58,0,0,24.47,34,30.21,29.89,0,0,10.17-38.76,10.24-39,0,0,5.58-10.69,1.06-11.71-9.45-2.14-15.25,21.18-17.84,32.11-.11.45-21.55-22.8-21.55-22.8s-3.94-6.92-4.92-7.59c-1.16-.83,0,7.33,0,7.33s-.94-.38-4.24-1.93c-3.82-1.79-8.59-2.9-9.16-2.42-1.06.88,6.21,4.61,6.21,4.61s-7.1-2.48-7.63-1.07,2.49,2.31,2.49,2.31-4.44-.71-2.84.53a33.93,33.93,0,0,0,5.14,2.85s-5.08-.21-3,.7A67.16,67.16,0,0,0,231.17,150.85Z" transform="translate(-58.63 -61.18)"/><path class="cls-7" d="M230.24,141.4s-.53,6.26-.66,6.63" transform="translate(-58.63 -61.18)"/><line class="cls-7" x1="165.79" y1="82.94" x2="170.93" y2="84.22"/><path class="cls-7" d="M236.63,142.61a7.68,7.68,0,0,0,2.39,5.58" transform="translate(-58.63 -61.18)"/><circle class="cls-8" cx="221.86" cy="59.69" r="5.15"/><path class="cls-4" d="M304.63,114.13s-.39-7.92,5.9-7.64,1.4,6.89,1.4,6.89,4.87-2.21,3.72,1.24-6.14,4-7.32,2.9S304.63,114.13,304.63,114.13Z" transform="translate(-58.63 -61.18)"/><path class="cls-4" d="M284.3,134.33l-5-27.58c-.23-1.86,3.87-8.29,5.5-9.24,4.47-2.56,13-2.53,20.09,3.6,1.66,1.41,2.4,9.71,2.13,12.91,17.41,22.37,24.92,59.77,25,69.33.09,8.81-44.27,3.7-55.11,3.46" transform="translate(-58.63 -61.18)"/><path class="cls-2" d="M295,113.2a12.2,12.2,0,0,0,2.63.16c1,0,3.43-.23,3.77,2.48s-2.27,4.29-3.85,4.37a3.2,3.2,0,0,0-1.8.45c-1,1,.06,9-.67,11.82-1.64,6.18,1.8,3.27,1.8,3.27s-22.17,23.65-16.05,0c0,0,1.29-14.69,1.2-14.76-1.26-1.26-6.17-1.81-3.08-12.28,2.86-9.7,4.29-4.41,9.35-8.94C288.27,100.28,287.29,103.59,295,113.2Z" transform="translate(-58.63 -61.18)"/><path class="cls-9" d="M300.19,116.63s-1.65-3.44-3.69,1.17" transform="translate(-58.63 -61.18)"/><path class="cls-10" d="M288.16,112.92a2.44,2.44,0,1,0,2.38,2.49h0A2.43,2.43,0,0,0,288.16,112.92Z" transform="translate(-58.63 -61.18)"/><path class="cls-10" d="M278,113.83a2.44,2.44,0,0,0,.83-4.49A11.67,11.67,0,0,0,278,113.83Z" transform="translate(-58.63 -61.18)"/><path class="cls-6" d="M280.06,112.55l3.72,1.85s-1.82,1.33-2.8.6A3.26,3.26,0,0,1,280.06,112.55Z" transform="translate(-58.63 -61.18)"/><path class="cls-9" d="M283.16,109.6l-.82,2.93L281,112a.34.34,0,0,1-.16-.46.23.23,0,0,1,.1-.12Z" transform="translate(-58.63 -61.18)"/><path class="cls-4" d="M287.26,109.24c.31.45.13-1.12-.4-1.48a1.08,1.08,0,0,0-1.52.18A3.37,3.37,0,0,1,287.26,109.24Z" transform="translate(-58.63 -61.18)"/><path class="cls-4" d="M281,105.75c-.53.15.6-1,1.24-.91a1.1,1.1,0,0,1,1.08,1.08A3.37,3.37,0,0,0,281,105.75Z" transform="translate(-58.63 -61.18)"/><path class="cls-4" d="M285.53,110.83c-.19.45-.5.74-.72.64s-.25-.51-.06-1,.49-.73.71-.64S285.71,110.39,285.53,110.83Z" transform="translate(-58.63 -61.18)"/><path class="cls-4" d="M282.09,109.24c-.17.42-.48.69-.68.61s-.23-.49-.07-.91.48-.71.69-.62S282.26,108.77,282.09,109.24Z" transform="translate(-58.63 -61.18)"/><path class="cls-4" d="M282,121a38.88,38.88,0,0,0,7,.74C291.3,121.54,281.44,128,282,121Z" transform="translate(-58.63 -61.18)"/><path class="cls-8" d="M303.4,124.06a5.16,5.16,0,1,0-5.15,5.16,5.15,5.15,0,0,0,5.15-5.16Z" transform="translate(-58.63 -61.18)"/><path class="cls-3" d="M281,133.34c.27.64-10.69,20.42-10.37,26.72.12,2.48,1.72,20.43,3.14,20.79-3.2,7.8-8.87,18.81-10.65,26.26,0,0,47.24-.14,58.92,0-3.9-9.23-2.84-12.07-13.14-29.46,4.26-29.1,2.33-38.7,1.07-42.26,0,0-12.12-5.49-14.42-5.66C295.54,129.75,282.28,145.36,281,133.34Z" transform="translate(-58.63 -61.18)"/><g class="cls-11"><path class="cls-12" d="M308.89,177.65c2.55-17.4,2.88-27.82,2.49-34.15-12.43,21.4-25.08,42.65-38.26,63.58,14.52,0,40.6-.07,48.89,0C318.12,197.9,319.18,195,308.89,177.65Z" transform="translate(-58.63 -61.18)"/></g><path class="cls-2" d="M335.87,165.17a6.89,6.89,0,0,0-.56-7.74c-3.61-4.52-10.58-11.17-21.09-19.61a16.23,16.23,0,0,0-11-3.93c-5.2.12-7.9,7.66-4,11.11,7.93,7,20.72,16.9,22.18,18.3-2.53,5-7.24,15.47-10.49,20.17a4.82,4.82,0,0,1-.58.69,9.09,9.09,0,0,0-2.59,4.15c-1,3.79-2.53,9.81-1.42,9.59,1.66-.26,3.78-5.53,3.78-5.53s-1.21,14.18,1.36,14.46c.27-.28,2.3-9.19,2-10.82,0,0-.83,10.42,0,11.09,2.17,1.76,1.76-1.22,1.76-1.22l1.08-14.33S329.79,175.68,335.87,165.17Z" transform="translate(-58.63 -61.18)"/><path class="cls-13" d="M242.49,91h17l8.52,14.91V76.09a14.91,14.91,0,0,0-14.92-14.91H242.49a14.91,14.91,0,0,0-14.91,14.91h0A14.92,14.92,0,0,0,242.49,91Z" transform="translate(-58.63 -61.18)"/><path class="cls-14" d="M241.12,76.92a2.11,2.11,0,1,0-4.21,0,2.11,2.11,0,0,0,4.21,0Z" transform="translate(-58.63 -61.18)"/><path class="cls-14" d="M249.36,76.92A2.12,2.12,0,1,0,247.24,79h0a2.11,2.11,0,0,0,2.11-2.1Z" transform="translate(-58.63 -61.18)"/><path class="cls-14" d="M257.65,76.92A2.12,2.12,0,1,0,255.54,79a2.11,2.11,0,0,0,2.11-2.11Z" transform="translate(-58.63 -61.18)"/><path class="cls-15" d="M201.15,98.41h-17l-8.52,14.92V83.55a14.92,14.92,0,0,1,14.91-14.92h10.65a14.92,14.92,0,0,1,14.92,14.92h0A14.91,14.91,0,0,1,201.15,98.41Z" transform="translate(-58.63 -61.18)"/><circle class="cls-14" cx="129.48" cy="24.47" r="2.1"/><circle class="cls-14" cx="137.71" cy="24.47" r="2.1"/><circle class="cls-14" cx="146" cy="24.47" r="2.1"/><polygon class="cls-16" points="110.56 284.55 108.84 281.14 98.57 281.51 98.34 284.55 103.16 292.92 111.84 286.22 110.56 284.55"/><path class="cls-17" d="M162.93,342.66,161,355c-.11.68-.4-2.49-.66-3.16a15.6,15.6,0,0,0-3.61-5.6l.43-4.48Z" transform="translate(-58.63 -61.18)"/><path class="cls-18" d="M169.81,345.61l-7.37,7.64s-4.4-6.72-5.36-7.57c-.2-.17-.47,0-.5.28l-1.22,11h30.55a.75.75,0,0,0,.64-.83v-2.32a.85.85,0,0,0-.44-.79Z" transform="translate(-58.63 -61.18)"/><polygon class="cls-16" points="60.78 284.55 59.06 281.14 49.64 279.72 48.57 284.55 53.39 292.92 62.07 286.22 60.78 284.55"/><path class="cls-17" d="M112.13,342.43l-1.43,12.08s-.37-6.09-3.49-8.89l.83-3.82Z" transform="translate(-58.63 -61.18)"/><path class="cls-18" d="M120,345.61a50.58,50.58,0,0,1-7.11,7.15c-2.09,1.58-4.66-6.23-5.63-7.08-.19-.17-.46,0-.5.28l-1.21,11h30.55a.76.76,0,0,0,.64-.83v-2.32a.84.84,0,0,0-.43-.79Z" transform="translate(-58.63 -61.18)"/><path class="cls-4" d="M167.29,212s3.92,47,4.29,60-2.24,70.86-2.24,70.86l-12.59.05s-15.16-96.92-31-128.21Z" transform="translate(-58.63 -61.18)"/><line class="cls-19" x1="101.58" y1="268.8" x2="101.66" y2="281.51"/><path class="cls-19" d="M147.47,214.47s11.17,54.3,11.17,62.63c0,1.34,1.5,45,1.57,48.45" transform="translate(-58.63 -61.18)"/><line class="cls-19" x1="97.62" y1="275.99" x2="110.85" y2="275.6"/><path class="cls-20" d="M161.45,211.65s-3.21,39.48-12.43,67.2c-7.46,22.37-29.65,64.25-29.65,64.25l-12.65.58,15.91-64.17a55.82,55.82,0,0,0,1.6-10.2c.83-13-1.86-39.32-3-56.16Z" transform="translate(-58.63 -61.18)"/><path class="cls-19" d="M134,277.25c-6.77,21.5-20.72,66.29-20.72,66.29" transform="translate(-58.63 -61.18)"/><path class="cls-19" d="M135.49,212.69s4.29,50.77.43,58.67" transform="translate(-58.63 -61.18)"/><line class="cls-19" x1="49.91" y1="276.69" x2="63.45" y2="277.47"/><path class="cls-16" d="M215.31,131.69l-.76,2.34s-6.2,13.26-8.79,20.3L200.61,133s2.42-3.94,3.81-6.63c0,0-2.59-13.18-2.11-14.17.82-1.79,3.83,6.51,4.25,5.59,1.18-2.6,1.83-4.44,2.13-4.79,0,0,2.13-13.31,3.47-11.71s.53,11.18.53,11.18,5.32-9.82,7.14-9.54.27,4.25.27,4.25,1.6-3.72,2.39-2.4-1.06,5.86-1.06,5.86,4-2.13,4-.53S215.31,131.69,215.31,131.69Z" transform="translate(-58.63 -61.18)"/><line class="cls-21" x1="161.46" y1="46.02" x2="157.56" y2="53.48"/><line class="cls-21" x1="162.79" y1="49.49" x2="159.86" y2="54.9"/><path class="cls-21" d="M211.05,112.17c.35.53,9.94,5,9.94,5" transform="translate(-58.63 -61.18)"/><path class="cls-21" d="M207.86,119.8s3.19,3.91,2.66,6.75" transform="translate(-58.63 -61.18)"/><path class="cls-16" d="M190.54,150s-44.28-29.54-49.14-9.06c-2.49,10.52,42.61,30,56.35,32.89a3.31,3.31,0,0,0,3.77-2.09l13.17-38-11-5.91Z" transform="translate(-58.63 -61.18)"/><path class="cls-18" d="M190.54,150S147.91,115,143.05,135.48c-2.49,10.52,26.19,41.08,55.12,38.78,1.66-.12,3.19-.55,3.77-2.08l12.75-38.51-15-7.86Z" transform="translate(-58.63 -61.18)"/><path class="cls-18" d="M175,154.63a87.16,87.16,0,0,0-22.44-25.51c-4.71-.4-8.29,1.25-9.53,6.38-2.07,8.69,16.85,30.73,39.78,36.84A102,102,0,0,0,175,154.63Z" transform="translate(-58.63 -61.18)"/><path class="cls-18" d="M112,150.11c.44-11,18.1-21,18.1-21l6.22-4.39-.05.35,11.05,9.12,3.39-2.92-.18-1.9,3.31,1.13c1.43.18,8,7.41,10.16,10.77a24.83,24.83,0,0,1,3.87,12.16L174.71,228l-57.44,2S111.33,167.14,112,150.11Z" transform="translate(-58.63 -61.18)"/><g class="cls-22"><path class="cls-18" d="M133.27,192c-4.14-8.21-7.86-16.64-11.48-25.08a125.23,125.23,0,0,1-7.85-23,13.86,13.86,0,0,0-1.93,6.22c-.68,17,5.29,79.77,5.29,79.77l37.82-1.32A300.43,300.43,0,0,1,133.27,192Z" transform="translate(-58.63 -61.18)"/></g><path class="cls-23" d="M137.94,101.35s-1.42-12.25.88-13.14,11.89-1.94,11.89-1.94-1.24-5.16,2.49-5.16,3.19,5.16,3.19,5.16,2.67-3.55,4.44-2.31,1.95,4.61.36,5.14c0,0,4.25,2.13,2.3,3.9s-3.37.72-3.37.72,3.19,2.13,1.42,3.37-20.23,12.06-20.23,12.06Z" transform="translate(-58.63 -61.18)"/><path class="cls-24" d="M137.33,93.7a72.34,72.34,0,0,0,.43,7.65l3.38,7.8s5.65-3.31,11-6.49C148.12,98,143,94.32,137.33,93.7Z" transform="translate(-58.63 -61.18)"/><path class="cls-16" d="M158.86,95.53s2.17,15.88-1.49,23.41a3.12,3.12,0,0,1-2.56,1.71,23.92,23.92,0,0,1-4.63-.16c1.6.2,1.09,4.27,2.66,9.6,0,0-.53,4.79-8.66,3.68-2.68-.37-9.62-7.22-9.62-7.22s3.47-10,3.7-13.17a21.05,21.05,0,0,0,0-4.2c-2-.18-2.56-3.84-1.81-5.8s4.34-1.76,5-.07c.21.54.83,1.1,1.51.3s.67-6.68,2.22-7.46a34.18,34.18,0,0,0,11.76,0A14.05,14.05,0,0,0,158.86,95.53Z" transform="translate(-58.63 -61.18)"/><path class="cls-17" d="M137,104.94c.91-3.6,3.36-.77,3.36-.77Z" transform="translate(-58.63 -61.18)"/><path class="cls-4" d="M151.34,120.65l-4.7-.69.41,1.25a2.21,2.21,0,0,0,4.29-.56Z" transform="translate(-58.63 -61.18)"/><path class="cls-17" d="M154.52,105.75a50,50,0,0,1,1.54,5.19l-1.79,0Z" transform="translate(-58.63 -61.18)"/><path class="cls-25" d="M155.72,107.06c0,.53.22,1,.48,1s.49-.43.49-1-.22-1-.48-1S155.71,106.52,155.72,107.06Z" transform="translate(-58.63 -61.18)"/><path class="cls-25" d="M151.51,107.18c0,.53.22,1,.48.95s.46-.43.46-1-.23-1-.48-1S151.51,106.64,151.51,107.18Z" transform="translate(-58.63 -61.18)"/><path class="cls-4" d="M149,103.64c-.61.08.1-1.31,2.56-1.79a1,1,0,0,1,1.18.76,1,1,0,0,1-.09.66C152.45,103.71,151.26,103.33,149,103.64Z" transform="translate(-58.63 -61.18)"/><path class="cls-4" d="M158.41,102.28c.6.18.13-1.65-1.65-2.15-1.23-.37-1.53.69-1.07,1.46C156,102,157.52,102,158.41,102.28Z" transform="translate(-58.63 -61.18)"/><path class="cls-6" d="M157.43,111.94l-6.38-.22s1.41,2.66,3.24,2.74C155.77,114.49,157.43,111.94,157.43,111.94Z" transform="translate(-58.63 -61.18)"/><path class="cls-16" d="M101.77,197.84c7,3.25,19.06,13,19.06,13s20.85,8.83,21.71,7.93-5.11-5.19-5.11-5.19c1.21-.08,7.59,3.32,8.09,2.74s-7.26-5.05-7.12-5.52,8.15,4.24,8.74,3.36-7.45-5.58-7.45-6.08,8.4,4,8.6,2.68-13.17-6.52-13.48-7.46,6.08-.58,8.06-1.91-12.43-2.3-12.43-2.3c-2.74-.83-19.83-14.66-19.83-14.66Z" transform="translate(-58.63 -61.18)"/><path class="cls-4" d="M123.58,212c.61-5.4,1.22-10.77,1.76-16.2-6-4.34-14.75-11.4-14.75-11.4l-8.82,13.45c7,3.25,19.06,13,19.06,13Z" transform="translate(-58.63 -61.18)"/><path class="cls-18" d="M108.87,179.67s34.37-28,20.11-45.81c-7.63-9.53-52.47,40.22-53.5,48.65l42.81,27.34,12.43-14.5Z" transform="translate(-58.63 -61.18)"/><g class="cls-26"><path class="cls-6" d="M59.2,180.9A125.33,125.33,0,0,1,110,128.16c3.31-1.84,9.29-5,11.47.07a25.31,25.31,0,0,1,1.21,6.41q.54,3.88,1.06,7.77l4.65,34.33a.29.29,0,0,0,.29.21c5.12.19,9.43-3,13.34-5.95s8.28-6.63,13.34-6.14c7.46.67,11,9.36,13.26,15.37,2.6,6.85,4.49,14.09,8.55,20.31,3.77,5.75,9.48,10.7,16.61,11.21a.31.31,0,0,0,0-.61c-6.9-.48-12.43-5.35-16.1-10.91-4.14-6.34-6-13.84-8.74-20.84-2.21-5.66-5.36-13.13-11.88-14.83-4.79-1.25-9.19,1.41-12.93,4.14-4.58,3.31-9.42,7.89-15.46,7.68l.29.23-4.35-32.09c-.37-2.66-.73-5.31-1.09-8a64.93,64.93,0,0,0-1.07-7.19,5.7,5.7,0,0,0-3-4,7.36,7.36,0,0,0-5.34.18,34,34,0,0,0-5.34,2.65c-1.9,1.08-3.79,2.22-5.64,3.39a126.3,126.3,0,0,0-44.49,49.08c-.17.34.34.64.51.3Z" transform="translate(-58.63 -61.18)"/><path class="cls-6" d="M119.05,115a182.28,182.28,0,0,0,11.76,19.15q3.15,4.47,6.55,8.74a110.31,110.31,0,0,0,7.17,8.4c10.62,10.83,24.12-5.33,29.33-14a91.88,91.88,0,0,0,8.91-21.15.29.29,0,0,0-.21-.37.31.31,0,0,0-.37.21h0c-3.65,12.25-9.17,25.24-19.24,33.62a19.88,19.88,0,0,1-8.48,4.39,9.78,9.78,0,0,1-9-2.64,80.88,80.88,0,0,1-6.73-7.72q-3.43-4.26-6.63-8.71a184.18,184.18,0,0,1-12.52-20.21A.3.3,0,0,0,119.05,115Z" transform="translate(-58.63 -61.18)"/><path class="cls-6" d="M182.13,136.18q11.19,23.55,23.08,46.75,3.31,6.51,6.74,13c.17.35.7,0,.51-.3Q200.39,172.54,189,149.1q-3.19-6.63-6.35-13.26c-.17-.34-.68,0-.52.3Z" transform="translate(-58.63 -61.18)"/><path class="cls-6" d="M187.51,133.14q14.6,23.34,28.65,47,4,6.62,7.87,13.34a.31.31,0,0,0,.42.07.3.3,0,0,0,.1-.37Q210.65,169.42,196.21,146q-4.08-6.63-8.17-13.16c-.21-.33-.73,0-.53.3Z" transform="translate(-58.63 -61.18)"/><path class="cls-6" d="M67.58,180.14a246,246,0,0,0,39.13-1.53c.38-.05.38-.65,0-.6a246,246,0,0,1-39.13,1.53A.3.3,0,0,0,67.58,180.14Z" transform="translate(-58.63 -61.18)"/><path class="cls-6" d="M80.16,160.25l23.94,14.39a.3.3,0,0,0,.41-.1.31.31,0,0,0-.11-.41l-24-14.4C80.12,159.53,79.82,160.05,80.16,160.25Z" transform="translate(-58.63 -61.18)"/></g></g></g></svg>