<svg width="300" height="314" viewBox="0 0 300 314" fill="none" xmlns="http://www.w3.org/2000/svg">
<path d="M62.1369 302.152C61.9075 301.825 40.8853 300.857 40.8853 300.857L27.1562 281.043L36.5384 267.87L58.5145 267.435L61.7988 301.208" fill="#FF8762"/>
<path d="M1.26785 308.176C14.2845 308.176 22.4349 306.325 35.4395 306.373C37.8544 306.373 40.5833 306.18 41.8874 304.196C43.0949 302.405 42.3946 299.926 41.0905 298.232C39.6442 296.657 38.1082 295.166 36.49 293.768C34.761 291.909 33.5464 289.63 32.9661 287.156C32.3859 284.683 32.4601 282.1 33.1815 279.664C34.6909 274.825 40.1366 268.716 45.0872 267.676C36.007 252.955 25.7676 240.459 16.6511 225.725C14.7795 222.701 12.8355 219.592 9.8651 217.645C6.8947 215.697 2.62023 215.322 0 217.741L1.26785 308.176Z" fill="#2B1710"/>
<path d="M138.498 46.5597C145.774 44.8394 150.28 37.536 148.563 30.2471C146.845 22.9582 139.555 18.444 132.279 20.1644C125.004 21.8847 120.498 29.1881 122.215 36.477C123.932 43.7658 131.222 48.28 138.498 46.5597Z" fill="#C9EE96"/>
<path d="M150.572 4.70801C160.522 28.9012 195.019 45.5098 195.019 45.5098L183.766 67.949C160.594 57.7758 119.54 62.7475 119.54 62.7475L150.572 4.70801Z" fill="#679E1A"/>
<path d="M118.598 66.2919C119.027 66.5199 119.497 66.6592 119.981 66.7015C120.465 66.7437 120.952 66.6882 121.414 66.5381C121.875 66.388 122.302 66.1465 122.669 65.8278C123.036 65.5091 123.335 65.1199 123.549 64.6831L153.736 5.40975C153.961 4.9765 154.099 4.50278 154.141 4.01592C154.183 3.52906 154.128 3.0387 153.98 2.57312C153.832 2.10754 153.593 1.67597 153.278 1.30329C152.962 0.930611 152.576 0.624209 152.142 0.401759V0.401759C151.272 -0.0418729 150.262 -0.121619 149.334 0.180033C148.406 0.481686 147.635 1.14007 147.191 2.01061L117.004 61.2839C116.768 61.715 116.623 62.1896 116.575 62.6788C116.528 63.1681 116.581 63.6618 116.73 64.1302C116.879 64.5985 117.121 65.0316 117.442 65.4032C117.764 65.7748 118.157 66.0771 118.598 66.2919V66.2919Z" fill="#295115"/>
<path d="M174.095 145.452L173.092 115.367C173.092 115.367 163.662 106.779 163.324 103.706C163.17 102.915 163.295 102.095 163.679 101.387C164.062 100.679 164.679 100.126 165.425 99.8233C164.843 99.5019 164.374 99.0094 164.08 98.4125C163.787 97.8155 163.683 97.1426 163.783 96.4847C163.793 95.8259 164.006 95.1863 164.393 94.6535C164.78 94.1208 165.321 93.721 165.944 93.5089C165.411 92.3723 165.329 91.0749 165.715 89.8799C166.56 87.5816 169.784 87.3155 169.784 87.3155C169.784 87.3155 168.709 85.9123 170.05 83.2389C171.486 80.372 174.517 81.2309 176.244 82.1865C176.896 82.5373 184.551 86.8921 190.54 90.4001C190.637 89.5533 191.748 79.743 194.163 77.6987C196.578 75.6543 198.437 77.5656 197.508 81.6784C196.578 85.7913 198.244 89.6138 198.896 94.2468C199.548 98.8798 194.139 111.001 194.139 111.001L193.764 113.88L200.2 141.218L200.587 142.875L208.894 175.717L235.688 144.266L237.403 188.709C237.403 188.709 218.795 217.741 202.555 217.741C180.506 217.741 177.198 195.713 177.198 195.713L174.131 145.536" fill="#FF8762"/>
<path d="M182.776 69.9207L195.02 45.5098L208.303 53.4209C213.374 56.0701 214.449 64.3079 211.865 69.461C211.234 70.7027 210.362 71.806 209.301 72.7065C208.239 73.6069 207.009 74.2865 205.683 74.7054C204.356 75.1244 202.96 75.2743 201.575 75.1465C200.19 75.0187 198.844 74.6156 197.616 73.961L196.687 73.5981L178.079 116.009C178.079 116.009 162.817 107.747 162.261 108.073C161.706 108.4 181.653 71.9771 182.776 69.9207Z" fill="#295115"/>
<path d="M183.911 113.408C183.725 113.135 183.598 112.826 183.536 112.501C183.258 111.62 183.108 110.703 183.09 109.779C183.063 106.711 183.855 103.692 185.384 101.033C186.057 99.6349 186.866 98.306 187.799 97.0657C188.603 96.056 189.501 95.1245 190.479 94.2835L190.407 94.477C190.396 93.4133 190.461 92.3501 190.6 91.2956C190.604 90.8901 190.64 90.4856 190.709 90.0859C190.856 90.4709 190.91 90.8856 190.866 91.2956C190.866 92.0456 190.757 93.1585 190.866 94.4407V94.5496L190.781 94.6343C189.867 95.4927 189.023 96.4231 188.258 97.4165C187.376 98.6461 186.608 99.9539 185.963 101.324C184.481 103.906 183.651 106.814 183.548 109.791C183.543 111.006 183.664 112.219 183.911 113.408Z" fill="#F07B54"/>
<path d="M169.832 87.2914C169.832 87.2914 176.678 91.1986 180.603 93.6058C181.576 94.3015 182.657 94.8327 183.803 95.1784C184.431 95.268 185.071 95.1741 185.647 94.908C186.223 94.642 186.711 94.215 187.051 93.6784C188.186 91.7671 186.954 88.8397 184.877 87.6301L174.01 81.3398" fill="#FF8762"/>
<path d="M165.763 93.3763C165.763 93.3763 172.621 97.2714 176.545 99.6787C177.515 100.375 178.592 100.906 179.733 101.251C180.363 101.342 181.006 101.248 181.584 100.982C182.162 100.716 182.652 100.289 182.993 99.7512C184.128 97.84 182.885 94.9126 180.82 93.7029L169.892 87.4248" fill="#FF8762"/>
<path d="M163.578 104.627C164.58 105.836 166.741 106.84 169.844 108.606C170.76 109.139 171.743 109.546 172.767 109.816C173.229 109.973 173.728 109.991 174.2 109.866C174.673 109.741 175.098 109.48 175.423 109.114C175.593 108.799 175.696 108.452 175.727 108.095C175.758 107.738 175.716 107.378 175.603 107.038C175.489 106.698 175.308 106.385 175.069 106.118C174.831 105.851 174.54 105.636 174.216 105.485L164.556 99.7637C164.556 99.7637 161.199 101.893 163.578 104.627Z" fill="#FF8762"/>
<path d="M164.736 99.4845C165.944 100.912 168.673 102.23 172.537 104.432C173.667 105.113 174.886 105.634 176.159 105.98C177.367 106.234 178.828 106.126 179.455 105.109C179.668 104.724 179.8 104.298 179.844 103.86C179.887 103.421 179.841 102.978 179.707 102.558C179.574 102.138 179.356 101.75 179.068 101.417C178.78 101.084 178.427 100.813 178.031 100.622L165.956 93.5088C165.956 93.5088 161.802 96.0975 164.736 99.4845Z" fill="#FF8762"/>
<path d="M182.764 67.5264C185.206 68.2089 187.585 69.0992 189.876 70.1876C192.273 71.0798 194.595 72.1639 196.819 73.4295C194.375 72.7414 191.992 71.8513 189.695 70.7683C187.299 69.8809 184.981 68.7965 182.764 67.5264V67.5264Z" fill="#171714"/>
<path d="M100.994 268.281C100.994 268.281 115.484 184.113 115.701 182.081C116.414 173.504 126.87 152.601 152.227 157.682C177.584 162.762 239.492 249.677 239.492 249.677L212.601 293.95H203.98L156.393 223.572L147.941 266.176L100.994 268.281Z" fill="#3F7D20"/>
<path d="M47.7559 308.393L260.332 307.087C266.805 307.161 273.167 305.4 278.681 302.004C284.196 298.609 288.64 293.72 291.497 287.901C293.737 283.322 294.902 278.291 294.902 273.192C294.902 256.68 289.396 220.898 289.396 220.898L234.492 223.185L230.761 254.769C230.761 254.769 64.5036 257.914 47.7559 257.66" fill="#3F7D20"/>
<path d="M155.27 189.169C155.448 189.617 155.578 190.084 155.656 190.56C155.862 191.455 156.115 192.774 156.393 194.395C157.081 198.649 157.484 202.945 157.6 207.253C157.723 211.56 157.586 215.87 157.19 220.16C157.045 221.806 156.888 223.136 156.755 224.043C156.721 224.523 156.636 224.997 156.502 225.459C156.444 224.981 156.444 224.497 156.502 224.019C156.574 222.967 156.646 221.66 156.743 220.124C156.924 216.834 157.105 212.286 156.96 207.265C156.816 202.245 156.333 197.733 155.898 194.467C155.68 192.943 155.499 191.649 155.354 190.608C155.269 190.134 155.241 189.65 155.27 189.169Z" fill="#679E1A"/>
<path d="M224.265 197.431L200.731 169.609C200.731 169.609 226.463 134.807 231.981 129.388C235.801 125.814 240.116 122.812 244.792 120.473L224.265 197.431Z" fill="#C9EE96"/>
<path d="M270.354 124.15L271.067 120.908L274.303 89.9167L274.23 63.7759L250.865 43.9375L230.338 47.3125C230.032 49.6138 229.544 51.8871 228.877 54.1107C228.877 54.1107 222.079 91.6102 225.557 99.4004C228.781 106.658 238.308 108.521 239.962 112.707C242.015 117.86 240.94 130.247 240.94 130.247C240.94 130.247 264.438 133.815 270.354 124.15Z" fill="#FF8762"/>
<path d="M234.25 71.0098C234.411 70.1442 234.323 69.2507 233.997 68.4332L233.84 68.3123C233.573 68.1427 233.272 68.0352 232.959 67.9975C232.645 67.9598 232.328 67.993 232.029 68.0945C231.775 68.2437 231.558 68.4486 231.395 68.6937C231.232 68.9389 231.127 69.2179 231.087 69.5098C230.942 70.3098 230.942 71.1292 231.087 71.9291C231.135 72.3437 231.236 72.7503 231.389 73.1388C231.462 73.3367 231.578 73.5161 231.729 73.6645C231.879 73.8128 232.059 73.9265 232.258 73.9977C232.599 74.0563 232.949 73.9942 233.249 73.822C233.548 73.6497 233.779 73.3782 233.9 73.0541C234.163 72.4061 234.283 71.7086 234.25 71.0098V71.0098Z" fill="#171714"/>
<path d="M253.111 73.7918C253.271 72.9262 253.183 72.0328 252.857 71.2152L252.701 71.1063C252.435 70.9335 252.134 70.824 251.82 70.7862C251.506 70.7485 251.188 70.7835 250.889 70.8886C250.636 71.0352 250.419 71.2378 250.256 71.481C250.093 71.7241 249.987 72.0015 249.947 72.2918C249.824 73.0955 249.845 73.9146 250.008 74.7111C250.056 75.1257 250.157 75.5323 250.31 75.9208C250.395 76.1932 250.567 76.43 250.8 76.595C251.033 76.7601 251.313 76.8442 251.598 76.8346C251.882 76.825 252.156 76.7222 252.377 76.5419C252.598 76.3615 252.754 76.1136 252.821 75.8361C253.064 75.1835 253.162 74.4862 253.111 73.7918V73.7918Z" fill="#171714"/>
<path d="M235.168 108.328L238.283 110.203C239.153 111.412 240.698 113.299 240.565 114.799C247.496 114.049 252.978 110.783 258.158 106.126C250.693 108.256 242.901 109.002 235.168 108.328Z" fill="#F07B54"/>
<path d="M271.779 99.872C273.326 100.081 274.899 99.9665 276.4 99.5355C277.901 99.1046 279.296 98.3665 280.497 97.368C281.646 96.4026 282.576 95.2031 283.225 93.8494C283.875 92.4957 284.229 91.0189 284.264 89.5173C284.382 87.9042 284.081 86.2881 283.391 84.8257C282.701 83.3634 281.646 82.1043 280.328 81.1707C278.974 80.2914 277.358 79.9075 275.755 80.0839C274.151 80.2602 272.657 80.9859 271.525 82.1384" fill="#FF8762"/>
<path d="M280.847 88.3078C280.747 87.681 280.504 87.0857 280.138 86.5677C279.771 86.0497 279.291 85.6228 278.734 85.3199C277.756 84.8724 276.947 85.453 275.921 85.8038C274.138 86.3401 272.623 87.533 271.683 89.1425V89.5175C272.467 88.586 274.098 88.0054 274.882 88.9368C275.252 89.5617 275.457 90.271 275.476 90.9972C275.495 91.7235 275.328 92.4425 274.991 93.0859C274.665 93.594 274.206 94.2109 274.508 94.719C274.632 94.8728 274.791 94.994 274.972 95.072C275.153 95.1501 275.35 95.1825 275.547 95.1666C276.381 95.1751 277.206 94.9868 277.955 94.617C278.704 94.2471 279.356 93.7061 279.857 93.0376C280.338 92.3597 280.674 91.5898 280.844 90.7761C281.015 89.9623 281.016 89.122 280.847 88.3078V88.3078Z" fill="#F07B54"/>
<path d="M273.047 94.7917C273.047 94.7917 273.349 94.707 273.796 94.4046C274.405 93.9619 274.834 93.313 275.003 92.578C275.347 91.5331 275.347 90.4053 275.003 89.3603C274.866 89.1096 274.653 88.9096 274.394 88.7898C274.136 88.67 273.845 88.6368 273.566 88.695C272.914 88.8309 272.334 89.2009 271.936 89.7353C271.694 90.0135 271.477 90.316 271.272 90.6063L270.741 90.2918C271.803 88.107 273.661 86.414 275.933 85.562C276.596 85.3077 277.291 85.1449 277.998 85.0781C278.505 85.0781 278.77 85.0781 278.77 85.0781C277.866 85.3124 276.976 85.595 276.102 85.9249C273.991 86.8355 272.277 88.4753 271.272 90.5458L270.729 90.2313C270.942 89.9134 271.172 89.6066 271.417 89.3119C271.919 88.6699 272.642 88.2386 273.445 88.1023C273.846 88.0289 274.26 88.087 274.626 88.2679C274.991 88.4487 275.288 88.7427 275.474 89.1063C275.748 89.7247 275.844 90.4077 275.752 91.078C275.696 91.6367 275.583 92.1881 275.414 92.7232C275.188 93.5309 274.655 94.2174 273.928 94.6344C273.665 94.7981 273.35 94.8544 273.047 94.7917Z" fill="#171714"/>
<path d="M244.369 85.102C243.461 84.9499 242.62 84.5285 241.954 83.8924C241.184 83.2469 240.552 82.453 240.094 81.5577C239.816 81.0285 239.601 80.4681 239.454 79.8884L239.358 79.4287C239.331 79.3093 239.331 79.1855 239.358 79.0662C239.386 78.9469 239.439 78.8352 239.515 78.7392C239.602 78.6469 239.71 78.5768 239.83 78.5347C239.949 78.4927 240.077 78.4798 240.203 78.4973C240.379 78.517 240.553 78.5534 240.722 78.6062L244.345 79.6223L243.91 79.84C244.033 78.0242 244.315 76.2229 244.755 74.457C244.822 76.255 244.742 78.0554 244.514 79.84V80.1787L244.188 80.094L240.565 79.1263C239.853 78.9691 239.925 78.9328 240.07 79.6586C240.202 80.1947 240.384 80.7171 240.613 81.219C241.029 82.0641 241.589 82.8298 242.268 83.4811C242.934 84.0648 243.635 84.6062 244.369 85.102Z" fill="#171714"/>
<path d="M252.508 62.3483C252.878 62.053 253.339 61.8949 253.812 61.9007C254.279 61.8844 254.746 61.9292 255.201 62.0338H255.321C255.55 62.0855 255.776 62.1501 255.998 62.2273C256.262 62.3236 256.517 62.4451 256.758 62.5902H256.843C257.112 62.7538 257.366 62.94 257.604 63.1467L257.688 63.2072L257.809 63.3039C258.263 63.691 258.584 64.2116 258.726 64.7918C258.8 65.0976 258.783 65.4182 258.678 65.7146C258.573 66.011 258.384 66.2704 258.135 66.4611C257.796 66.6053 257.421 66.6433 257.06 66.57L255.515 66.3886C254.84 66.3429 254.177 66.1961 253.546 65.9531C253.217 65.823 252.918 65.6273 252.667 65.3777C252.416 65.1282 252.218 64.8301 252.085 64.5015C251.957 64.1376 251.928 63.7457 252.002 63.3669C252.077 62.9881 252.251 62.6363 252.508 62.3483V62.3483Z" fill="#171714"/>
<path d="M232.668 59.6636C233.039 59.36 233.506 59.201 233.985 59.216C234.447 59.2002 234.91 59.2449 235.361 59.349H235.482C235.711 59.4095 235.941 59.47 236.17 59.5547C236.428 59.6519 236.679 59.7692 236.919 59.9055H237.003C237.275 60.065 237.53 60.2514 237.764 60.4619C237.797 60.4749 237.826 60.4957 237.849 60.5224V60.5224L237.969 60.6192C238.425 61.0119 238.75 61.5355 238.899 62.1192C238.971 62.4243 238.951 62.7437 238.844 63.0381C238.737 63.3325 238.546 63.5891 238.295 63.7764C237.96 63.933 237.581 63.9714 237.221 63.8853L235.675 63.7038C235.002 63.661 234.338 63.5183 233.707 63.2804C233.379 63.1477 233.081 62.9494 232.832 62.6978C232.583 62.4462 232.388 62.1464 232.258 61.8167C232.122 61.4547 232.089 61.0622 232.161 60.6824C232.234 60.3025 232.409 59.95 232.668 59.6636V59.6636Z" fill="#171714"/>
<path d="M251.155 92.9529C251.978 92.8632 252.743 92.4864 253.316 91.8884C253.876 91.208 254.175 90.3504 254.162 89.4691C254.125 88.3663 253.849 87.2848 253.353 86.2997C253.123 85.8038 252.87 85.332 252.628 84.8723L253.123 84.9449C251.878 86.1668 250.432 87.1652 248.849 87.8965C248.233 88.2398 247.556 88.4577 246.856 88.5376C248.976 87.4701 250.939 86.1146 252.689 84.5094L252.978 84.207L253.184 84.582C253.425 85.0417 253.679 85.5256 253.92 86.0336C254.483 87.1083 254.777 88.3038 254.777 89.5174C254.776 90.5293 254.382 91.5011 253.679 92.2271C253.211 92.7132 252.586 93.0175 251.916 93.0859C251.433 93.1464 251.155 92.9892 251.155 92.9529Z" fill="#171714"/>
<path d="M227.875 58.3681L226.667 56.6383C224.578 54.0617 221.222 53.6142 218.493 49.211C214.786 43.1627 218.638 39.1587 218.638 39.1587C223.286 33.4007 232.354 34.5257 238.573 37.7555C235.24 35.7233 228.635 33.304 230.374 29.5298C232.173 24.3162 242.678 25.9009 252.29 31.1508C246.856 27.4492 247.81 22.9977 252.23 24.7275L273.699 35.3362C276.602 36.5652 279.263 38.3019 281.559 40.4652C286.546 45.7756 287.597 54.4851 287.089 61.7673C286.551 67.766 284.935 73.618 282.32 79.0412C281.882 79.9576 281.382 80.8428 280.823 81.6904C280.201 81.214 279.514 80.831 278.782 80.5533C277.133 80.1074 275.396 80.1074 273.747 80.5533C272.565 80.8973 271.558 81.6805 270.933 82.7428C270.413 84.0215 269.753 85.2386 268.965 86.3718C268.55 86.9287 267.974 87.3438 267.315 87.5603C266.656 87.7768 265.946 87.7842 265.282 87.5814C264.795 87.3309 264.381 86.9567 264.082 86.4962C263.783 86.0357 263.61 85.5048 263.58 84.9565C263.528 83.8593 263.671 82.7616 264.002 81.7146L267.625 67.3438C257.615 63.7148 252.314 55.4891 251.928 44.9046L251.807 44.8078C251.553 46.0175 250.599 48.8844 247.339 48.5941C244.647 48.331 241.991 47.7753 239.418 46.9368C239.418 46.9368 235.868 54.1948 229.638 50.4449L227.875 58.3681Z" fill="#171714"/>
<path d="M271.066 117.533C307.556 131.795 301.736 243.834 294.95 276.942C254.391 285.41 224.639 282.882 200.091 253.438L214.001 241.85L220.521 182.879C220.521 182.879 224.144 137.831 239.624 121.815L271.066 117.533Z" fill="#679E1A"/>
<path d="M246.543 197.697L231.317 291.531C231.317 291.531 215.922 290.502 210.283 290.502C204.644 290.502 203.328 293.333 203.328 293.333C199.403 293.926 193.994 299.285 191.169 302.623C190.701 303.177 190.39 303.845 190.265 304.559C190.14 305.272 190.208 306.007 190.459 306.686C190.711 307.366 191.139 307.966 191.698 308.425C192.258 308.884 192.929 309.187 193.644 309.301C194.653 309.297 195.641 309.008 196.493 308.466C196.162 309.043 196.035 309.716 196.134 310.375C196.232 311.034 196.551 311.64 197.037 312.095C197.932 312.676 198.973 312.995 200.04 313.014C201.107 313.033 202.158 312.752 203.074 312.204C204.499 311.115 212.106 305.599 212.106 305.599C212.106 305.599 226.258 307.934 231.788 309.107C239.818 310.8 251.192 307.546 254.513 297.579C257.833 287.611 278.397 204.169 278.397 203.165L246.543 197.697Z" fill="#FF8762"/>
<path d="M235.35 195.798L281.053 203.588C281.053 203.588 293.345 151.863 284.566 138.085C276.863 125.988 266.044 126.738 257.688 133.646C247.944 141.714 235.35 195.798 235.35 195.798Z" fill="#C9EE96"/>
<path d="M218.553 299.611C218.553 299.708 217.141 299.406 214.931 299.091C213.627 298.909 212.306 298.877 210.995 298.994C209.4 299.18 207.866 299.717 206.503 300.567C205.132 301.434 203.849 302.435 202.675 303.555C201.552 304.571 200.562 305.514 199.681 306.252C198.991 306.85 198.266 307.403 197.507 307.909C197.238 308.114 196.936 308.269 196.614 308.369C196.553 308.284 197.736 307.498 199.379 305.95L202.277 303.156C203.465 301.985 204.772 300.943 206.177 300.047C207.618 299.153 209.247 298.607 210.934 298.45C212.295 298.351 213.663 298.428 215.003 298.68C216.138 298.885 217.044 299.127 217.66 299.297C217.973 299.353 218.274 299.459 218.553 299.611V299.611Z" fill="#F07B54"/>
</svg>
