<svg width="658" height="313" viewBox="0 0 658 313" fill="none" xmlns="http://www.w3.org/2000/svg">
<g filter="url(#filter0_d_304_2139)">
<path d="M267.056 66.616C267.728 66.328 268.688 67 269.264 66.136C269.744 65.464 269.552 64.504 269.648 63.64C269.744 62.68 269.84 61.624 269.648 60.664C269.36 59.224 269.648 57.88 269.744 56.44C269.84 54.904 270.416 54.328 272.048 54.232C274.256 54.136 276.272 53.752 278.288 52.6C278.384 52.6 278.48 52.504 278.672 52.408C279.152 52.216 279.44 52.504 279.344 52.984C278.672 55.864 278.576 58.744 278 61.624C277.808 62.68 277.52 63.736 278.576 64.504C280.496 65.848 282.608 66.328 284.912 66.136C286.064 66.04 286.736 65.272 286.832 64.216C287.312 59.608 288.176 55 289.232 50.488C289.904 47.896 290.384 45.304 290.96 42.712C291.632 38.968 291.44 35.128 292.112 31.48C292.688 27.832 292.976 24.28 292.496 20.632C292.4 20.248 292.496 19.768 292.496 19.288C292.688 16.216 293.456 13.048 292.88 9.976C292.208 6.712 290.672 3.832 287.12 2.776C284.72 2.008 282.32 1.336 279.824 0.759995C278.672 0.375999 277.424 0.471998 276.464 1.336C271.76 5.944 267.44 10.744 265.04 16.888C262.928 22.36 261.584 28.12 260.144 33.88C259.28 37.24 259.472 40.696 258.896 44.152C258.32 47.32 258.032 50.488 258.032 54.136C257.744 56.728 258.32 59.608 258.704 62.488C258.8 63.64 259.376 64.792 260.528 65.272C262.544 66.04 264.56 67.576 267.056 66.616ZM271.952 45.4C270.8 45.88 270.608 45.688 270.8 44.44C271.376 40.6 272.24 36.76 273.104 32.92C274.544 26.008 278 19.96 281.072 13.624C281.456 12.856 281.936 12.184 282.416 11.512C282.608 11.224 282.704 10.744 283.184 10.84C283.664 11.032 283.376 11.512 283.472 11.896C283.088 14.392 282.8 16.792 282.416 19.192C282.032 21.784 281.84 24.28 281.936 26.872C282.032 28.6 281.552 30.328 281.36 32.152C281.168 34.36 280.784 36.472 281.168 38.68C281.264 39.544 281.168 40.408 281.168 41.272C281.072 43.288 280.784 43.672 278.672 43.96C276.368 44.248 274.16 44.536 271.952 45.4ZM308.936 69.4C314.888 69.88 320.168 68.248 324.872 64.792C328.136 62.392 330.728 59.224 331.784 55.192C332.072 54.136 332.264 53.08 332.552 51.928C333.416 48.184 334.568 44.344 333.992 40.408C333.896 40.024 333.896 39.64 333.992 39.352C334.76 36.568 334.568 33.688 335.24 31C335.816 28.504 335.72 25.912 335.048 23.416C334.664 22.168 334.472 20.824 334.28 19.48C334.088 17.944 333.416 16.504 332.264 15.256C331.4 14.584 330.632 13.72 330.056 12.856C328.52 10.552 326.312 9.304 323.816 8.536C318.728 7.096 314.024 4.792 308.936 3.256C306.92 2.68 305.96 2.96799 305.288 4.984C305 5.848 304.52 6.232 303.656 6.04C303.272 5.944 302.984 6.04 302.6 6.04C300.968 6.04 300.584 6.616 301.064 8.152C301.256 8.824 301.544 9.496 301.448 10.264C301.16 13.144 300.968 15.928 300.488 18.712C299.624 24.472 299.048 30.232 298.376 35.992C297.608 42.232 297.128 48.472 297.032 55.096C296.84 56.728 297.032 58.552 297.224 60.472C297.416 64.216 299.432 66.712 302.888 68.056C304.808 68.824 306.92 69.304 308.936 69.4ZM311.72 63.352C310.184 63.16 309.32 62.104 309.224 60.568C309.128 59.896 309.032 59.224 309.032 58.456C308.936 57.784 309.032 57.112 309.032 56.44C309.32 52.024 309.416 47.704 310.088 43.384C310.376 41.368 310.472 39.448 310.568 37.432C310.568 35.032 310.664 32.728 310.76 30.328C310.856 28.792 310.664 27.256 310.472 25.72C310.184 22.936 310.568 20.152 310.472 17.368C310.472 16.12 310.376 14.776 310.088 13.528C309.896 12.472 309.992 11.416 310.952 10.744C311.912 10.072 313.064 9.688 314.216 10.264C317.672 12.088 320.456 14.584 322.76 17.56C323.912 19.096 324.968 20.728 326.024 22.264C326.504 22.936 326.888 23.704 326.792 24.568C326.504 26.584 326.792 28.6 327.08 30.52C327.176 31.192 327.176 31.864 327.08 32.44C326.024 37.912 325.064 43.288 324.008 48.664C323.24 52.216 321.896 55.48 320.456 58.744C318.824 62.584 315.368 63.64 311.72 63.352ZM347.082 69.688C350.25 70.744 350.346 69.592 350.346 67.192C350.442 64.504 350.346 64.504 350.346 61.816C350.25 56.632 350.538 42.808 350.538 37.528C350.634 35.896 350.538 34.168 350.826 32.632C350.826 32.344 350.73 31.768 351.018 31.768C351.402 31.768 351.306 32.248 351.498 32.632C351.882 33.688 352.074 34.84 352.554 35.896C354.474 40.984 355.722 46.36 356.778 51.832C356.778 51.736 359.466 60.664 359.37 60.664C359.946 62.2 359.946 62.968 360.81 63.256L366.762 63.736C367.818 63.736 368.298 63.64 368.298 62.584C368.01 61.432 368.97 55.768 368.97 53.848C368.874 51.256 368.586 53.08 368.874 50.584C369.546 44.92 369.642 41.56 369.642 35.896C369.642 35.704 369.546 35.512 369.546 35.512C369.258 32.44 368.874 29.464 369.546 26.584C370.026 25.048 370.122 18.04 369.93 16.408C369.642 14.584 369.354 12.76 369.738 10.936C369.834 9.976 369.354 9.304 368.586 8.632C367.338 7.96 365.994 7.672 364.65 7.768C363.402 7.86399 363.018 8.152 362.73 9.304C362.154 12.76 361.77 16.216 361.578 19.768C361.29 23.224 361.29 32.152 361.29 35.512C361.29 35.704 361.386 36.184 361.29 36.184C360.906 36.184 360.81 35.8 360.81 35.512C360.618 34.36 360.138 33.304 359.946 32.152C359.37 29.848 357.93 27.736 357.546 25.336C356.874 21.496 354.57 18.328 353.322 14.68C353.226 14.584 353.226 14.296 353.034 14.2C351.21 12.472 350.922 10.072 350.538 7.768C350.538 7.288 350.538 6.808 350.154 6.424C349.194 4.696 345.162 2.96799 343.242 3.256C342.186 3.44799 341.802 3.928 341.802 4.984C341.802 6.424 341.514 7.768 341.226 9.112C340.746 11.224 340.458 13.24 340.362 15.352C340.17 21.304 339.786 27.256 339.594 33.208C339.402 37.624 339.594 42.232 339.786 46.744C339.978 50.872 340.458 60.856 340.458 65.08C340.458 65.56 340.554 66.232 340.65 66.712C340.746 67.864 341.418 68.44 342.474 68.824C343.146 69.016 343.818 69.208 344.49 69.208C345.354 69.112 346.218 69.304 347.082 69.688ZM43.2099 184.592C46.9539 184.688 50.6019 183.92 54.0579 182.672C59.3379 180.944 63.2739 177.488 66.3459 172.976C67.1139 171.92 67.7859 170.864 68.0739 169.616C69.1299 166.064 69.2259 162.608 68.7459 159.152C68.3619 156.368 66.8259 153.968 65.6739 151.568C63.9459 147.92 61.2579 145.136 57.3219 143.696C56.2659 143.216 56.2659 143.12 57.1299 142.352C58.1859 141.392 59.0499 140.144 59.4339 138.704C60.0099 136.688 60.1059 134.576 59.9139 132.464C59.5299 129.392 58.2819 126.608 56.6499 124.016C55.4979 122.192 54.0579 120.656 52.1379 119.696C49.0659 118.16 45.8979 117.488 42.4419 118.064C41.0979 118.16 39.6579 118.64 38.2179 118.16C37.4499 117.968 36.7779 118.16 36.4899 119.12C36.3939 119.504 36.1059 119.984 36.1059 120.464C36.0099 121.712 35.7219 122.864 35.4339 124.112C34.8579 126.8 34.7619 129.584 34.4739 132.272C33.8979 136.496 33.3219 140.72 33.5139 145.04C33.6099 146 33.5139 147.056 33.4179 148.112L32.8419 162.992C32.8419 167.888 33.3219 172.688 33.5139 177.584C33.6099 181.04 35.4339 182.192 38.0259 182.672C39.1779 182.96 40.2339 183.248 41.1939 183.92C41.7699 184.304 42.4419 184.592 43.2099 184.592ZM46.5699 136.976C45.6099 137.648 45.2259 137.456 45.2259 136.304C45.1299 135.632 45.2259 134.768 45.2259 134C45.1299 132.464 45.4179 130.928 45.4179 129.296C45.5139 128.432 45.8979 127.952 46.6659 127.856C48.8739 127.472 51.0819 127.472 53.0979 128.528C54.3459 129.296 54.6339 129.968 53.9619 131.216C53.5779 132.272 52.8099 132.944 51.9459 133.52C50.1219 134.672 48.2979 135.728 46.5699 136.976ZM45.1299 173.648C43.9779 173.744 43.3059 173.264 43.2099 172.016V168.944C43.3059 164.912 43.4979 160.784 43.8819 156.752C44.0739 154.832 44.0739 152.912 44.1699 150.992C44.2659 149.36 44.5539 149.072 45.8979 148.784C46.6659 148.688 47.3379 148.496 48.0099 148.304C49.6419 147.536 51.2739 147.632 52.9059 148.304C55.2099 149.168 57.3219 150.32 59.5299 151.472C60.2979 151.856 60.8739 152.432 61.3539 153.104C61.9299 154.064 62.5059 155.024 62.9859 155.984C64.2339 158 64.0419 160.016 63.1779 162.128C62.2179 164.144 60.6819 165.776 59.1459 167.312C55.3059 171.344 50.4099 173.072 45.1299 173.648ZM91.4011 184.496C92.1691 184.4 92.7451 184.112 93.4171 183.824C94.2811 183.248 95.1451 182.864 96.2011 182.48C97.7371 181.616 99.0811 180.464 99.7531 178.64C100.521 176.144 101.193 173.648 101.193 170.96C101.193 169.328 101.385 167.696 101.385 166.16C101.289 163.472 101.769 160.784 101.385 158.096C101.289 156.848 100.809 155.696 100.713 154.448C100.425 149.84 100.617 145.232 99.4651 140.624C98.6971 137.744 98.6971 134.576 98.1211 131.504C97.4491 127.568 96.2971 126.416 93.1291 125.264C90.2491 124.304 87.3691 124.016 84.3931 123.056C82.8571 122.672 82.1851 123.056 81.4171 124.592C80.7451 125.936 80.1691 127.376 78.7291 128.144C78.4411 128.24 78.2491 128.72 78.0571 129.008C77.0971 130.544 76.3291 132.176 76.0411 134C75.2731 137.456 75.1771 141.104 73.9291 144.368C73.9291 144.464 73.8331 144.56 73.8331 144.656C73.5451 149.936 72.6811 155.12 72.9691 160.016V162.704C73.0651 168.368 73.8331 173.936 76.3291 179.216C77.5771 181.808 79.5931 183.632 82.3771 184.304C85.3531 185.072 88.4251 184.88 91.4011 184.496ZM88.7131 179.792C87.9451 178.928 87.5611 177.968 87.1771 176.912C86.3131 174.32 85.8331 171.632 85.3531 168.944C84.7771 165.392 84.6811 161.744 84.5851 158.096C84.5851 156.944 84.4891 155.696 84.3931 154.544C84.1051 151.472 84.9691 148.496 85.1611 145.424C85.3531 143.6 85.0651 141.68 85.6411 139.952L86.2171 137.744C86.6011 135.728 87.6571 134 87.9451 131.792C87.9451 131.504 88.1371 131.312 88.3291 131.12C88.5211 130.736 88.7131 130.16 89.1931 130.256C89.6731 130.256 89.6731 130.832 89.8651 131.216C91.4011 134.096 91.1131 137.36 91.4011 141.776C91.4011 145.136 91.4971 149.744 91.4011 154.352C91.3051 156.464 91.0171 158.576 91.0171 160.688C90.9211 166.352 90.3451 171.824 89.8651 177.392C89.7691 178.16 89.6731 178.928 89.4811 179.6C89.3851 180.176 89.0011 180.176 88.7131 179.792ZM116.636 185.072C117.02 185.072 117.5 184.976 117.884 185.072C120.38 185.264 122.396 184.112 123.836 182.384C126.332 179.408 127.676 175.76 128.444 171.92C129.5 166.544 129.212 160.976 129.5 155.504C129.596 151.856 129.404 148.208 129.692 144.56C129.98 142.064 129.884 139.472 129.884 136.976C129.884 133.904 129.884 130.832 129.404 127.856C129.116 126.032 128.828 124.208 128.924 122.288C129.02 120.464 127.292 119.696 126.332 118.448C126.332 118.352 126.14 118.352 125.948 118.352C124.604 118.352 123.26 118.256 121.916 118.16C120.86 118.064 120.572 118.544 120.572 119.6C120.572 120.08 120.764 120.464 120.86 120.848C121.244 122.192 121.82 123.536 121.916 124.784C122.108 127.376 122.684 129.872 122.3 132.368C122.396 135.152 122.204 137.84 121.532 140.432C121.244 141.488 121.052 142.544 120.86 143.696C120.092 147.056 119.42 150.416 118.076 153.584C117.692 154.352 117.404 155.216 116.636 155.792C115.868 155.024 115.868 154.064 115.772 153.104C115.196 149.936 115.196 146.672 115.196 143.408C115.292 141.584 114.908 139.856 115.196 138.032C115.484 135.824 115.388 133.616 115.388 131.408C115.388 129.68 115.1 128.048 115.1 126.32C115.004 124.592 114.14 123.152 112.988 121.904C112.796 121.712 112.508 121.424 112.316 121.136C111.26 119.216 109.436 118.736 107.42 118.832C106.364 118.928 105.98 119.216 106.076 120.368C106.46 123.152 106.364 126.032 105.98 128.816C105.692 131.504 105.788 134.096 105.596 136.784C105.5 140.528 105.212 144.368 105.692 148.112C106.076 150.896 106.652 153.68 108.284 156.176C109.532 158.192 111.164 159.824 113.564 160.208C115.484 160.496 117.308 160.688 119.036 161.552C120.476 162.128 120.572 162.128 120.284 163.664C119.708 166.064 118.94 168.464 118.076 170.672C117.404 172.208 117.02 173.84 116.06 175.184C115.868 175.472 115.676 175.952 115.292 175.76C114.908 175.664 115.004 175.184 115.1 174.896C115.196 172.88 114.908 170.96 115.004 168.944C115.004 168.272 115.004 167.696 114.62 167.12C114.044 166.256 113.372 165.392 112.892 164.432C112.7 164.048 112.22 163.856 111.74 163.76C110.492 163.472 109.148 163.376 107.9 163.472C106.268 163.664 105.788 164.144 106.172 165.68C106.364 166.832 106.46 167.984 106.268 169.136C105.788 172.688 106.652 176.144 106.748 179.696C106.748 181.328 107.036 181.52 108.668 181.904C108.956 182 109.34 182.096 109.628 182.288C110.972 183.248 112.508 183.728 113.948 184.496C114.812 184.88 115.676 185.168 116.636 185.072ZM146.485 185.456C150.037 185.552 153.013 184.304 155.605 181.808C155.989 181.424 156.469 181.136 156.949 180.752C158.101 179.984 159.253 179.024 159.829 177.68C160.597 175.856 161.077 174.032 161.365 172.112C161.749 170 161.653 167.792 161.845 165.68C161.941 164.912 161.845 164.048 161.557 163.376C161.077 162.32 160.309 161.648 159.157 161.552C158.005 161.36 157.237 161.84 156.661 162.8C155.221 165.008 154.645 167.312 154.453 169.808C154.261 172.592 153.589 175.376 152.725 177.968C152.533 178.448 152.437 178.832 152.149 179.216C151.765 179.6 151.477 179.696 150.997 179.312C150.421 178.832 149.941 178.064 149.749 177.296C149.269 175.856 148.789 174.512 148.789 172.88C148.789 170.672 148.789 168.368 148.981 166.16C149.173 163.568 149.845 160.976 149.749 158.288C149.749 157.136 150.037 155.984 150.229 154.736C150.613 153.104 150.709 151.472 150.229 149.744C149.653 148.016 149.557 146.192 149.749 144.368C149.845 142.448 149.941 140.624 149.845 138.704C149.845 137.744 149.941 136.784 150.229 135.92C150.613 134.384 150.709 132.848 150.517 131.312C150.229 129.008 150.901 126.992 151.573 124.88C151.765 124.4 151.957 124.016 152.245 123.632C152.629 123.248 152.917 123.248 153.301 123.536C154.261 124.4 155.029 125.36 155.125 126.704L155.413 128.432C155.509 129.2 155.893 129.584 156.661 129.584C157.429 129.584 158.101 129.488 158.869 129.392C159.829 129.296 160.501 128.528 160.501 127.568V126.512C160.309 124.784 159.733 123.248 159.061 121.712C158.677 120.848 158.005 120.272 157.045 119.984C155.125 119.504 153.301 118.832 151.285 118.832C150.805 118.832 150.229 118.736 149.749 118.544C149.269 118.448 148.789 118.448 148.309 118.352C147.061 118.352 146.005 118.832 144.949 119.12C142.357 119.792 140.533 121.328 139.477 123.92C137.749 127.76 136.597 131.696 135.925 135.824C135.061 140.528 134.869 145.232 134.677 149.936C134.677 150.992 134.581 151.952 134.485 152.912C133.909 156.464 133.717 160.016 133.717 163.568C133.717 164.336 133.813 165.2 133.717 165.968C133.525 171.056 134.773 175.76 137.077 180.176C137.845 181.808 138.997 183.152 140.437 184.208C141.301 184.88 142.261 185.168 143.317 185.36C144.373 185.456 145.429 185.456 146.485 185.456ZM184.214 184.496C184.982 184.4 185.558 184.112 186.23 183.824C187.094 183.248 187.958 182.864 189.014 182.48C190.55 181.616 191.894 180.464 192.566 178.64C193.334 176.144 194.006 173.648 194.006 170.96C194.006 169.328 194.198 167.696 194.198 166.16C194.102 163.472 194.582 160.784 194.198 158.096C194.102 156.848 193.622 155.696 193.526 154.448C193.238 149.84 193.43 145.232 192.278 140.624C191.51 137.744 191.51 134.576 190.934 131.504C190.262 127.568 189.11 126.416 185.942 125.264C183.062 124.304 180.182 124.016 177.206 123.056C175.67 122.672 174.998 123.056 174.23 124.592C173.558 125.936 172.982 127.376 171.542 128.144C171.254 128.24 171.062 128.72 170.87 129.008C169.91 130.544 169.142 132.176 168.854 134C168.086 137.456 167.99 141.104 166.742 144.368C166.742 144.464 166.646 144.56 166.646 144.656C166.358 149.936 165.494 155.12 165.782 160.016V162.704C165.878 168.368 166.646 173.936 169.142 179.216C170.39 181.808 172.406 183.632 175.19 184.304C178.166 185.072 181.238 184.88 184.214 184.496ZM181.526 179.792C180.758 178.928 180.374 177.968 179.99 176.912C179.126 174.32 178.646 171.632 178.166 168.944C177.59 165.392 177.494 161.744 177.398 158.096C177.398 156.944 177.302 155.696 177.206 154.544C176.918 151.472 177.782 148.496 177.974 145.424C178.166 143.6 177.878 141.68 178.454 139.952L179.03 137.744C179.414 135.728 180.47 134 180.758 131.792C180.758 131.504 180.95 131.312 181.142 131.12C181.334 130.736 181.526 130.16 182.006 130.256C182.486 130.256 182.486 130.832 182.678 131.216C184.214 134.096 183.926 137.36 184.214 141.776C184.214 145.136 184.31 149.744 184.214 154.352C184.118 156.464 183.83 158.576 183.83 160.688C183.734 166.352 183.158 171.824 182.678 177.392C182.582 178.16 182.486 178.928 182.294 179.6C182.198 180.176 181.814 180.176 181.526 179.792ZM208.393 186.32C209.545 186.032 210.697 185.936 211.945 185.936C213.289 186.032 213.769 185.552 213.961 184.304C213.961 183.824 214.057 183.248 213.961 182.768C213.673 181.52 213.769 180.368 213.769 179.216C213.769 177.104 213.865 175.184 213.481 173.072C213.289 171.728 213.385 170.288 213.385 168.944C213.385 167.024 213.865 165.296 213.577 163.472C213.481 162.128 213.385 160.88 213.385 159.632C213.481 156.944 213.577 154.448 213.385 151.856C213.385 149.936 213.097 148.016 213.961 146.192C214.249 145.52 214.153 144.944 213.961 144.272C213.865 143.888 213.769 143.408 213.865 142.928C214.153 138.224 214.729 133.52 214.441 128.72C214.345 126.992 214.729 125.36 214.633 123.824C214.441 121.424 214.345 121.424 216.745 121.328C217.897 121.328 219.145 121.232 220.393 120.848C221.161 120.464 221.641 119.792 221.545 118.832C221.545 116.816 219.913 115.184 217.897 114.992C217.417 114.896 216.841 114.896 216.457 114.896C212.233 115.184 208.201 115.28 204.169 115.568C202.633 115.76 201.097 115.952 199.561 116.432C198.409 116.624 197.929 117.488 198.313 118.64C198.697 120.08 199.753 120.752 201.097 120.944C201.961 121.136 203.017 121.232 203.977 121.232C205.129 121.136 205.513 121.712 205.417 122.864C205.321 124.208 205.225 125.456 205.033 126.8C204.745 129.776 204.265 132.848 203.977 135.824C203.593 141.104 203.305 146.288 203.305 151.472C203.305 156.656 203.113 161.744 203.401 166.928C203.689 170.48 203.785 174.128 203.401 177.68C203.305 179.696 203.497 181.616 204.073 183.632C204.649 185.936 206.089 186.896 208.393 186.32ZM235.58 186.32C236.732 186.032 237.884 185.936 239.132 185.936C240.476 186.032 240.956 185.552 241.148 184.304C241.148 183.824 241.244 183.248 241.148 182.768C240.86 181.52 240.956 180.368 240.956 179.216C240.956 177.104 241.052 175.184 240.668 173.072C240.476 171.728 240.572 170.288 240.572 168.944C240.572 167.024 241.052 165.296 240.764 163.472C240.668 162.128 240.572 160.88 240.572 159.632C240.668 156.944 240.764 154.448 240.572 151.856C240.572 149.936 240.284 148.016 241.148 146.192C241.436 145.52 241.34 144.944 241.148 144.272C241.052 143.888 240.956 143.408 241.052 142.928C241.34 138.224 241.916 133.52 241.628 128.72C241.532 126.992 241.916 125.36 241.82 123.824C241.628 121.424 241.532 121.424 243.932 121.328C245.084 121.328 246.332 121.232 247.58 120.848C248.348 120.464 248.828 119.792 248.732 118.832C248.732 116.816 247.1 115.184 245.084 114.992C244.604 114.896 244.028 114.896 243.644 114.896C239.42 115.184 235.388 115.28 231.356 115.568C229.82 115.76 228.284 115.952 226.748 116.432C225.596 116.624 225.116 117.488 225.5 118.64C225.884 120.08 226.94 120.752 228.284 120.944C229.148 121.136 230.204 121.232 231.164 121.232C232.316 121.136 232.7 121.712 232.604 122.864C232.508 124.208 232.412 125.456 232.22 126.8C231.932 129.776 231.452 132.848 231.164 135.824C230.78 141.104 230.492 146.288 230.492 151.472C230.492 156.656 230.3 161.744 230.588 166.928C230.876 170.48 230.972 174.128 230.588 177.68C230.492 179.696 230.684 181.616 231.26 183.632C231.836 185.936 233.276 186.896 235.58 186.32ZM271.12 184.496C271.888 184.4 272.464 184.112 273.136 183.824C274 183.248 274.864 182.864 275.92 182.48C277.456 181.616 278.8 180.464 279.472 178.64C280.24 176.144 280.912 173.648 280.912 170.96C280.912 169.328 281.104 167.696 281.104 166.16C281.008 163.472 281.488 160.784 281.104 158.096C281.008 156.848 280.528 155.696 280.432 154.448C280.144 149.84 280.336 145.232 279.184 140.624C278.416 137.744 278.416 134.576 277.84 131.504C277.168 127.568 276.016 126.416 272.848 125.264C269.968 124.304 267.088 124.016 264.112 123.056C262.576 122.672 261.904 123.056 261.136 124.592C260.464 125.936 259.888 127.376 258.448 128.144C258.16 128.24 257.968 128.72 257.776 129.008C256.816 130.544 256.048 132.176 255.76 134C254.992 137.456 254.896 141.104 253.648 144.368C253.648 144.464 253.552 144.56 253.552 144.656C253.264 149.936 252.4 155.12 252.688 160.016V162.704C252.784 168.368 253.552 173.936 256.048 179.216C257.296 181.808 259.312 183.632 262.096 184.304C265.072 185.072 268.144 184.88 271.12 184.496ZM268.432 179.792C267.664 178.928 267.28 177.968 266.896 176.912C266.032 174.32 265.552 171.632 265.072 168.944C264.496 165.392 264.4 161.744 264.304 158.096C264.304 156.944 264.208 155.696 264.112 154.544C263.824 151.472 264.688 148.496 264.88 145.424C265.072 143.6 264.784 141.68 265.36 139.952L265.936 137.744C266.32 135.728 267.376 134 267.664 131.792C267.664 131.504 267.856 131.312 268.048 131.12C268.24 130.736 268.432 130.16 268.912 130.256C269.392 130.256 269.392 130.832 269.584 131.216C271.12 134.096 270.832 137.36 271.12 141.776C271.12 145.136 271.216 149.744 271.12 154.352C271.024 156.464 270.736 158.576 270.736 160.688C270.64 166.352 270.064 171.824 269.584 177.392C269.488 178.16 269.392 178.928 269.2 179.6C269.104 180.176 268.72 180.176 268.432 179.792ZM308.835 184.592C309.315 184.496 309.699 184.496 310.083 184.496C311.715 184.688 312.483 183.728 312.483 181.808C312.387 180.176 312.579 178.448 312.771 176.816C313.155 173.648 313.347 170.288 313.347 167.12C313.347 160.4 313.155 157.424 313.251 152.528C313.251 150.224 313.155 147.92 313.251 145.712C313.443 140.24 312.771 135.824 313.059 130.352C313.347 127.088 313.155 123.824 312.867 120.464C312.771 119.12 312.387 118.64 311.139 118.64C309.987 118.64 308.835 118.832 307.587 119.12C307.107 119.216 306.915 119.6 306.915 120.272C307.011 120.848 306.819 121.424 306.723 122C306.627 122.864 306.531 123.728 306.531 124.592C306.723 126.032 306.531 127.376 306.435 128.816C305.763 134.096 306.147 138.512 306.051 143.888C306.051 145.904 305.859 147.92 305.571 149.936C305.091 152.432 304.995 155.024 305.283 157.616C305.475 158.96 305.379 160.304 305.283 161.648C305.283 161.936 305.283 162.416 305.091 162.512C304.899 162.512 304.803 162.032 304.803 161.744L304.323 159.824C303.459 156.656 302.499 153.488 302.115 150.224C301.923 148.88 301.635 147.632 301.251 146.384C300.867 145.232 300.579 144.08 300.291 142.832C300.195 141.968 300.003 141.2 299.811 140.432C299.139 137.744 298.179 135.248 297.699 132.464C297.507 131.216 297.411 129.968 297.027 128.816C296.547 127.184 295.683 125.744 295.011 124.208C294.819 123.824 294.627 123.536 294.339 123.248L292.611 121.616C290.979 119.984 288.579 120.848 287.907 123.248C287.427 125.168 287.139 127.184 287.043 129.296C287.043 133.136 286.563 136.976 286.179 140.816C285.795 144.848 285.411 148.976 285.411 153.104C285.411 154.736 285.507 156.368 285.411 158C285.123 161.84 285.123 165.68 285.123 170.384L285.411 178.544C285.507 179.6 285.603 180.752 285.795 181.808C286.083 182.864 286.563 183.344 287.331 183.344C288.195 183.248 289.059 183.536 289.827 184.016C290.595 184.496 291.555 184.688 292.419 184.112C293.379 183.44 294.243 182.576 294.819 181.328V180.176C294.339 178.256 294.531 176.336 294.435 174.416C294.339 170.672 294.627 167.024 294.915 163.28L295.203 160.496C295.299 160.112 295.299 159.44 295.491 159.44C295.875 159.44 295.875 160.112 295.875 160.4C297.315 166.16 298.755 171.824 300.963 177.296C301.539 178.928 301.923 180.56 302.499 182.192C303.075 183.632 303.555 184.016 304.899 183.92C305.475 183.92 305.955 184.016 306.531 184.304C307.203 184.88 307.971 184.88 308.835 184.592ZM328.514 183.056C330.146 183.344 331.586 183.248 332.546 181.712C332.642 181.424 332.93 181.232 333.122 181.136C336.77 178.832 338.594 175.28 339.842 171.248C339.938 170.672 340.226 170.192 340.514 169.808C341.378 168.752 341.666 167.6 341.762 166.352C341.954 162.704 341.378 159.248 339.842 155.984C338.21 152.336 335.714 149.168 333.218 146C332.45 145.04 331.586 143.984 331.394 142.736C330.914 139.568 330.53 136.4 330.434 133.232C330.338 130.928 331.106 128.72 331.586 126.512C331.874 125.264 332.546 124.4 333.602 123.632C333.89 123.44 334.178 122.96 334.562 123.248C335.042 123.44 334.754 123.92 334.658 124.304C334.37 126.8 333.89 129.2 333.986 131.696C333.986 133.04 334.274 134.192 335.234 135.056C336.194 136.016 337.346 136.688 338.498 137.36C339.65 137.936 340.514 137.456 340.706 136.208C340.994 134.864 341.09 133.52 341.378 132.272C341.858 129.488 342.242 126.704 342.05 123.92C341.858 120.656 339.17 117.296 336.098 116.24C335.714 116.144 335.33 116.144 335.042 116.144C331.298 116.144 328.514 117.872 326.594 120.848C325.25 122.864 324.386 125.168 323.906 127.568C323.33 130.352 322.754 133.136 322.37 136.016C321.698 141.488 322.946 146.384 327.074 150.32C327.842 151.088 328.706 151.856 329.57 152.624C332.738 155.312 333.794 158.96 334.178 162.896C334.178 163.28 334.082 163.664 333.986 163.952C333.218 165.488 332.738 167.12 332.354 168.752C332.162 170 331.394 170.864 330.146 171.344L328.706 171.92C327.266 172.4 326.69 171.92 326.882 170.48C327.17 166.736 327.746 162.992 327.554 159.152C327.458 157.04 324.962 155.504 323.042 156.56C322.562 156.848 322.082 157.136 321.602 157.232C320.258 157.424 320.066 157.52 320.162 158.768C320.258 160.208 319.874 161.456 319.106 162.608C318.53 163.28 318.146 164.048 317.666 164.816C317.186 165.584 316.994 166.352 317.282 167.216C317.474 167.888 317.474 168.656 317.57 169.328C317.666 171.344 318.242 173.264 319.49 174.896C319.874 175.568 320.258 176.24 320.546 176.912C321.986 180.56 324.866 182.384 328.514 183.056ZM385.135 185.744C388.879 186.128 389.935 184.976 390.031 181.424V180.848C390.031 179.408 389.743 179.12 388.303 179.024C386.767 178.928 385.231 178.832 383.695 178.832C382.639 178.832 381.679 178.448 380.815 177.872C380.143 177.296 379.663 176.72 379.855 175.664C380.047 174.704 380.047 173.648 380.047 172.688C380.335 168.368 380.239 164.144 380.815 159.92C381.007 159.056 381.295 158.576 382.159 158.672C384.271 158.96 386.287 158.384 388.303 158C389.743 157.712 390.319 156.944 390.511 155.504C390.511 154.928 390.415 154.352 390.319 153.776C390.223 152.72 389.647 152.24 388.687 152.144C387.439 151.952 386.095 151.856 384.847 151.856H383.791H382.543C381.391 151.76 381.103 151.472 381.007 150.32C380.911 148.4 380.911 146.48 380.911 144.56C380.815 138.32 381.679 132.176 380.815 125.936C380.719 125.168 381.103 124.688 381.871 124.688C383.695 124.496 385.615 124.016 387.439 124.4C389.071 124.688 390.607 124.4 392.239 124.112C392.911 124.016 393.391 123.728 393.487 122.96C393.583 122.096 393.391 121.328 392.623 120.944C392.239 120.752 391.855 120.656 391.375 120.656C389.167 120.272 386.959 119.888 384.751 119.408C382.447 118.928 380.047 118.928 377.743 119.024C376.879 119.024 376.015 119.12 375.823 120.176C375.439 123.536 374.575 126.704 374.095 130.064C373.327 135.536 372.751 141.008 372.175 146.48C371.503 152.624 370.927 158.864 370.255 165.008C369.871 168.56 369.967 172.112 370.159 175.664C370.447 179.504 371.983 182 375.631 183.248C378.703 184.304 381.775 185.456 385.135 185.744ZM421.054 184.592C421.534 184.496 421.918 184.496 422.302 184.496C423.934 184.688 424.702 183.728 424.702 181.808C424.606 180.176 424.798 178.448 424.99 176.816C425.374 173.648 425.566 170.288 425.566 167.12C425.566 160.4 425.374 157.424 425.47 152.528C425.47 150.224 425.374 147.92 425.47 145.712C425.662 140.24 424.99 135.824 425.278 130.352C425.566 127.088 425.374 123.824 425.086 120.464C424.99 119.12 424.606 118.64 423.358 118.64C422.206 118.64 421.054 118.832 419.806 119.12C419.326 119.216 419.134 119.6 419.134 120.272C419.23 120.848 419.038 121.424 418.942 122C418.846 122.864 418.75 123.728 418.75 124.592C418.942 126.032 418.75 127.376 418.654 128.816C417.982 134.096 418.366 138.512 418.27 143.888C418.27 145.904 418.078 147.92 417.79 149.936C417.31 152.432 417.214 155.024 417.502 157.616C417.694 158.96 417.598 160.304 417.502 161.648C417.502 161.936 417.502 162.416 417.31 162.512C417.118 162.512 417.022 162.032 417.022 161.744L416.542 159.824C415.678 156.656 414.718 153.488 414.334 150.224C414.142 148.88 413.854 147.632 413.47 146.384C413.086 145.232 412.798 144.08 412.51 142.832C412.414 141.968 412.222 141.2 412.03 140.432C411.358 137.744 410.398 135.248 409.918 132.464C409.726 131.216 409.63 129.968 409.246 128.816C408.766 127.184 407.902 125.744 407.23 124.208C407.038 123.824 406.846 123.536 406.558 123.248L404.83 121.616C403.198 119.984 400.798 120.848 400.126 123.248C399.646 125.168 399.358 127.184 399.262 129.296C399.262 133.136 398.782 136.976 398.398 140.816C398.014 144.848 397.63 148.976 397.63 153.104C397.63 154.736 397.726 156.368 397.63 158C397.342 161.84 397.342 165.68 397.342 170.384L397.63 178.544C397.726 179.6 397.822 180.752 398.014 181.808C398.302 182.864 398.782 183.344 399.55 183.344C400.414 183.248 401.278 183.536 402.046 184.016C402.814 184.496 403.774 184.688 404.638 184.112C405.598 183.44 406.462 182.576 407.038 181.328V180.176C406.558 178.256 406.75 176.336 406.654 174.416C406.558 170.672 406.846 167.024 407.134 163.28L407.422 160.496C407.518 160.112 407.518 159.44 407.71 159.44C408.094 159.44 408.094 160.112 408.094 160.4C409.534 166.16 410.974 171.824 413.182 177.296C413.758 178.928 414.142 180.56 414.718 182.192C415.294 183.632 415.774 184.016 417.118 183.92C417.694 183.92 418.174 184.016 418.75 184.304C419.422 184.88 420.19 184.88 421.054 184.592ZM440.732 183.056C442.364 183.344 443.804 183.248 444.764 181.712C444.86 181.424 445.148 181.232 445.34 181.136C448.988 178.832 450.812 175.28 452.06 171.248C452.156 170.672 452.444 170.192 452.732 169.808C453.596 168.752 453.884 167.6 453.98 166.352C454.172 162.704 453.596 159.248 452.06 155.984C450.428 152.336 447.932 149.168 445.436 146C444.668 145.04 443.804 143.984 443.612 142.736C443.132 139.568 442.748 136.4 442.652 133.232C442.556 130.928 443.324 128.72 443.804 126.512C444.092 125.264 444.764 124.4 445.82 123.632C446.108 123.44 446.396 122.96 446.78 123.248C447.26 123.44 446.972 123.92 446.876 124.304C446.588 126.8 446.108 129.2 446.204 131.696C446.204 133.04 446.492 134.192 447.452 135.056C448.412 136.016 449.564 136.688 450.716 137.36C451.868 137.936 452.732 137.456 452.924 136.208C453.212 134.864 453.308 133.52 453.596 132.272C454.076 129.488 454.46 126.704 454.268 123.92C454.076 120.656 451.388 117.296 448.316 116.24C447.932 116.144 447.548 116.144 447.26 116.144C443.516 116.144 440.732 117.872 438.812 120.848C437.468 122.864 436.604 125.168 436.124 127.568C435.548 130.352 434.972 133.136 434.588 136.016C433.916 141.488 435.164 146.384 439.292 150.32C440.06 151.088 440.924 151.856 441.788 152.624C444.956 155.312 446.012 158.96 446.396 162.896C446.396 163.28 446.3 163.664 446.204 163.952C445.436 165.488 444.956 167.12 444.572 168.752C444.38 170 443.612 170.864 442.364 171.344L440.924 171.92C439.484 172.4 438.908 171.92 439.1 170.48C439.388 166.736 439.964 162.992 439.772 159.152C439.676 157.04 437.18 155.504 435.26 156.56C434.78 156.848 434.3 157.136 433.82 157.232C432.476 157.424 432.284 157.52 432.38 158.768C432.476 160.208 432.092 161.456 431.324 162.608C430.748 163.28 430.364 164.048 429.884 164.816C429.404 165.584 429.212 166.352 429.5 167.216C429.692 167.888 429.692 168.656 429.788 169.328C429.884 171.344 430.46 173.264 431.708 174.896C432.092 175.568 432.476 176.24 432.764 176.912C434.204 180.56 437.084 182.384 440.732 183.056ZM473.354 185.744C477.098 186.128 478.154 184.976 478.25 181.424V180.848C478.25 179.408 477.962 179.12 476.522 179.024C474.986 178.928 473.45 178.832 471.914 178.832C470.858 178.832 469.898 178.448 469.034 177.872C468.362 177.296 467.882 176.72 468.074 175.664C468.266 174.704 468.266 173.648 468.266 172.688C468.554 168.368 468.458 164.144 469.034 159.92C469.226 159.056 469.514 158.576 470.378 158.672C472.49 158.96 474.506 158.384 476.522 158C477.962 157.712 478.538 156.944 478.73 155.504C478.73 154.928 478.634 154.352 478.538 153.776C478.442 152.72 477.866 152.24 476.906 152.144C475.658 151.952 474.314 151.856 473.066 151.856H472.01H470.762C469.61 151.76 469.322 151.472 469.226 150.32C469.13 148.4 469.13 146.48 469.13 144.56C469.034 138.32 469.898 132.176 469.034 125.936C468.938 125.168 469.322 124.688 470.09 124.688C471.914 124.496 473.834 124.016 475.658 124.4C477.29 124.688 478.826 124.4 480.458 124.112C481.13 124.016 481.61 123.728 481.706 122.96C481.802 122.096 481.61 121.328 480.842 120.944C480.458 120.752 480.074 120.656 479.594 120.656C477.386 120.272 475.178 119.888 472.97 119.408C470.666 118.928 468.266 118.928 465.962 119.024C465.098 119.024 464.234 119.12 464.042 120.176C463.658 123.536 462.794 126.704 462.314 130.064C461.546 135.536 460.97 141.008 460.394 146.48C459.722 152.624 459.146 158.864 458.474 165.008C458.09 168.56 458.186 172.112 458.378 175.664C458.666 179.504 460.202 182 463.85 183.248C466.922 184.304 469.994 185.456 473.354 185.744ZM522.809 191.024C524.537 191.216 526.169 190.736 527.897 190.64C528.665 190.544 529.337 189.968 529.913 189.488C530.201 189.296 530.393 188.912 530.393 188.624C530.393 187.088 530.681 185.552 530.393 184.016L529.529 178.064C529.337 176.336 529.049 174.608 528.857 172.88C528.569 170.576 528.281 168.272 528.185 165.968C528.089 164.144 528.185 162.32 527.801 160.496C527.321 157.04 527.321 153.68 527.321 150.32L527.225 147.632C527.225 146.096 526.841 144.56 526.745 143.12C526.649 141.392 526.553 139.76 526.361 138.128C526.169 136.592 525.881 135.056 525.785 133.52C525.689 132.08 525.689 130.736 525.305 129.392C524.825 128.336 524.633 127.28 524.633 126.224C524.633 125.648 524.249 125.168 523.865 124.976C523.481 124.592 523.001 124.4 522.521 124.4C520.889 124.304 519.257 124.016 517.625 124.016C516.953 124.016 516.377 124.208 515.993 124.592C514.937 125.552 514.169 126.512 513.689 127.664C513.305 128.72 512.825 129.68 512.345 130.544C511.193 132.752 510.329 135.056 509.849 137.456C509.753 137.936 509.561 138.512 509.369 139.088C509.369 139.184 509.369 139.376 509.177 139.28C509.081 139.28 508.985 139.184 508.985 139.088C508.601 137.744 508.025 136.496 508.025 135.152C508.025 133.328 507.545 131.696 507.257 129.872C507.065 129.008 506.681 128.336 506.201 127.664C505.913 127.088 505.433 126.608 505.049 126.128C504.569 125.264 503.801 124.976 502.745 124.88C501.305 124.784 499.961 124.784 498.521 124.592C496.985 124.4 496.601 124.688 495.929 126.128C494.777 128.336 494.009 130.736 493.433 133.136C492.665 135.92 492.281 138.896 491.897 141.776C491.609 143.696 491.513 145.52 491.129 147.344C489.881 152.72 489.209 158.096 488.153 163.376C487.193 168.368 486.521 173.36 485.945 178.256C485.753 179.888 485.465 181.52 485.561 183.152C485.561 184.208 485.849 184.4 486.713 184.784C489.209 185.552 491.705 185.072 494.105 184.208C495.161 183.92 495.833 183.152 496.025 182.096C496.313 180.656 496.793 179.312 497.561 177.968L497.849 177.392C498.521 174.512 499.289 171.536 499.289 168.56C499.289 166.352 499.961 164.144 500.249 161.936C500.633 159.44 500.921 156.944 501.305 154.544C501.497 153.296 501.785 152.048 501.785 150.896L501.977 148.592C502.073 148.4 502.073 148.208 502.265 148.016C502.361 148.208 502.457 148.4 502.457 148.496C502.841 149.936 503.129 151.376 503.321 152.816C503.513 154.544 503.897 156.176 504.473 157.808C504.665 158.384 505.049 158.864 505.721 159.152C506.681 159.44 507.545 159.92 508.505 160.496C509.561 161.072 510.713 161.072 511.961 160.88C512.729 160.688 513.209 160.304 513.305 159.536C513.497 157.904 513.977 156.368 513.977 154.736C514.073 152.72 514.073 150.704 514.457 148.688L516.185 140.912C516.185 140.624 516.185 140.048 516.569 140.144C516.857 140.144 516.761 140.624 516.761 140.912V141.776L517.145 155.312L517.241 164.912C517.241 166.64 517.337 168.272 517.433 170L518.201 179.504C518.489 182 518.393 184.496 518.681 186.992C518.777 189.488 520.313 190.928 522.809 191.024ZM547.847 182.576C549.479 182.768 551.207 182.48 552.743 182.192C556.487 181.328 558.887 178.832 560.327 175.376C560.807 174.224 561.191 172.976 561.575 171.824C562.919 167.12 563.207 162.224 562.727 157.328C562.439 154.64 561.959 151.952 561.575 149.168C561.191 146.768 560.615 144.464 558.791 142.544C558.407 142.16 558.407 141.776 558.887 141.392C559.847 140.72 560.327 139.664 560.711 138.512C560.711 138.32 560.807 138.032 560.999 137.744C561.575 136.4 561.863 134.864 561.863 133.328C561.959 131.888 561.671 130.448 562.343 129.008V128.528C562.439 126.608 562.343 124.592 561.671 122.768C561.287 121.616 560.903 120.56 560.039 119.792C558.791 118.448 557.255 117.392 555.431 116.816C552.263 115.664 548.999 115.568 545.735 116.144C545.063 116.336 544.487 116.624 543.815 116.432C542.567 116.144 541.223 116.24 539.879 116.528C538.247 116.72 537.863 117.2 537.575 118.832C536.999 123.152 536.615 127.376 536.327 131.696C536.135 135.056 535.847 138.416 535.751 141.68C535.655 145.232 535.271 148.784 534.983 152.24C534.791 154.064 534.887 155.888 534.695 157.712C534.407 161.264 534.407 164.912 534.311 167.696V174.032C534.311 175.76 534.215 177.488 534.503 179.216C534.791 181.136 535.559 181.808 537.479 181.808C538.919 181.808 540.455 181.904 541.895 182C543.911 182.096 545.927 182.288 547.847 182.576ZM549.575 137.168C549.287 137.36 549.095 137.264 549.191 136.88C549.287 135.824 549.287 134.768 549.479 133.712C549.959 130.832 549.863 127.952 549.575 125.072C549.479 124.208 549.479 123.248 549.383 122.384C549.287 121.424 549.767 120.848 550.727 120.848L552.551 121.136C553.127 121.328 553.607 121.712 553.799 122.192C554.279 123.248 554.663 124.304 554.567 125.456C554.567 126.8 554.087 128.048 553.799 129.296C553.415 130.64 553.031 131.984 552.551 133.328C552.071 134.96 551.015 136.208 549.575 137.168ZM546.407 177.392C545.831 177.392 545.255 177.296 544.679 177.2C542.855 176.816 542.855 176.816 543.239 174.992C543.623 173.36 543.527 171.728 543.719 170.096C543.911 168.848 544.103 167.504 544.391 166.256C544.967 164.432 545.159 162.416 545.159 160.496C545.159 159.152 545.255 157.904 545.639 156.656C545.831 156.368 545.831 156.08 545.927 155.696C546.023 153.008 546.791 150.32 547.271 147.632L547.559 146C547.559 145.712 547.655 145.424 547.847 145.136C548.231 144.752 548.519 144.656 548.903 145.04C549.095 145.232 549.191 145.424 549.287 145.616C549.863 146.576 550.343 147.536 550.727 148.496C551.303 150.416 551.975 152.336 552.743 154.256C553.415 155.888 553.799 157.52 553.703 158.48C553.415 164.24 552.647 169.136 550.823 173.84C550.151 175.568 548.615 176.528 547.079 177.392C546.887 177.488 546.599 177.488 546.407 177.392ZM575.1 184.496C576.06 184.592 577.02 184.688 577.692 184.016C578.844 183.056 580.188 182.96 581.532 182.96C582.492 183.056 583.356 183.056 584.412 183.056C586.236 182.96 588.252 183.248 590.268 182.768C591.708 182.48 592.188 181.904 591.516 180.56C590.844 179.024 589.98 177.392 589.02 175.952C588.06 174.608 587.196 174.224 585.66 174.704C584.028 175.28 582.492 174.896 580.86 174.896C579.9 174.896 579.612 174.512 579.708 173.552C580.092 171.152 580.38 168.848 580.572 166.448C580.86 163.568 581.244 160.688 581.436 157.904C581.628 155.792 581.724 153.776 582.012 151.76C582.3 149.648 582.876 147.536 582.684 145.424C582.588 144.08 582.78 142.736 582.972 141.392C583.644 137.744 584.22 134.096 584.22 130.352C584.124 127.664 583.644 125.072 583.164 122.48C582.972 121.136 582.204 119.984 580.956 119.12C579.228 117.872 577.404 117.488 575.292 117.488C573.852 117.584 573.564 117.776 573.372 119.312C573.084 121.712 572.892 124.112 572.604 126.416C572.124 130.352 571.356 134.288 571.068 138.224C570.684 142.832 570.108 147.44 569.628 152.048C568.956 158.48 567.996 164.912 567.228 171.344C566.844 174.032 566.652 176.72 566.748 179.408C566.844 181.616 568.572 183.824 570.588 183.824C572.124 183.824 573.564 184.208 575.1 184.496ZM610.791 185.744C614.535 186.128 615.591 184.976 615.687 181.424V180.848C615.687 179.408 615.399 179.12 613.959 179.024C612.423 178.928 610.887 178.832 609.351 178.832C608.295 178.832 607.335 178.448 606.471 177.872C605.799 177.296 605.319 176.72 605.511 175.664C605.703 174.704 605.703 173.648 605.703 172.688C605.991 168.368 605.895 164.144 606.471 159.92C606.663 159.056 606.951 158.576 607.815 158.672C609.927 158.96 611.943 158.384 613.959 158C615.399 157.712 615.975 156.944 616.167 155.504C616.167 154.928 616.071 154.352 615.975 153.776C615.879 152.72 615.303 152.24 614.343 152.144C613.095 151.952 611.751 151.856 610.503 151.856H609.447H608.199C607.047 151.76 606.759 151.472 606.663 150.32C606.567 148.4 606.567 146.48 606.567 144.56C606.471 138.32 607.335 132.176 606.471 125.936C606.375 125.168 606.759 124.688 607.527 124.688C609.351 124.496 611.271 124.016 613.095 124.4C614.727 124.688 616.263 124.4 617.895 124.112C618.567 124.016 619.047 123.728 619.143 122.96C619.239 122.096 619.047 121.328 618.279 120.944C617.895 120.752 617.511 120.656 617.031 120.656C614.823 120.272 612.615 119.888 610.407 119.408C608.103 118.928 605.703 118.928 603.399 119.024C602.535 119.024 601.671 119.12 601.479 120.176C601.095 123.536 600.231 126.704 599.751 130.064C598.983 135.536 598.407 141.008 597.831 146.48C597.159 152.624 596.583 158.864 595.911 165.008C595.527 168.56 595.623 172.112 595.815 175.664C596.103 179.504 597.639 182 601.287 183.248C604.359 184.304 607.431 185.456 610.791 185.744ZM3.66838 301.608C5.30038 301.896 6.93238 301.512 8.56438 301.224C9.04438 301.128 9.42838 300.84 9.90838 300.552C11.0604 299.784 11.0604 298.536 11.2524 297.384C11.8284 294.792 12.2124 292.296 11.9244 289.704V288.168C11.9244 284.136 12.7884 280.104 12.6924 276.072C12.5964 274.824 12.7884 274.728 14.1324 274.824C14.6124 274.824 15.1884 274.824 15.6684 275.016C18.9324 276.264 22.0044 275.304 25.0764 274.344C25.5564 274.248 25.9404 273.864 26.3244 273.384C27.8604 271.56 29.2044 269.448 30.5484 267.336C31.3164 266.28 31.8924 265.128 31.9884 263.88C32.2764 261.96 32.4684 260.04 32.8524 258.216C33.5244 254.856 34.0044 251.496 33.7164 247.944C33.4284 244.296 32.4684 241.224 28.5324 239.88C27.7644 239.688 26.9964 239.592 26.2284 239.496C23.7324 239.016 21.3324 239.016 19.1244 240.168C17.7804 240.936 16.5324 241.704 15.5724 242.76C15.2844 243.048 15.0924 243.528 14.7084 243.336C14.4204 243.24 14.5164 242.76 14.4204 242.376C14.3244 241.128 14.3244 239.784 14.3244 238.536C14.3244 237.384 13.8444 236.712 12.9804 236.136C11.6364 235.176 10.0044 234.792 8.46838 234.696C6.06838 234.696 5.10838 235.464 4.62838 237.768C4.34038 239.112 3.57238 240.264 3.38038 241.608C2.80438 247.56 2.13238 253.416 1.74838 259.272C1.36438 264.168 1.07638 269.064 0.884375 273.96C0.692375 278.184 0.500375 282.408 0.500375 286.632C0.404375 290.952 0.404375 295.176 0.404375 299.4C0.404375 300.84 1.17238 301.512 2.51638 301.512C2.90038 301.512 3.28438 301.512 3.66838 301.608ZM18.0684 267.624C17.4924 266.952 16.8204 266.472 15.9564 266.184C15.0924 265.896 14.8044 265.32 15.0924 264.456C16.1484 260.136 17.5884 255.912 19.7004 251.976C20.7564 250.152 21.5244 248.232 22.7724 246.6C23.1564 246.12 23.4444 245.352 24.0204 245.544C24.5964 245.736 24.4044 246.504 24.5004 247.08V249.768C24.3084 252.744 23.8284 255.912 23.3484 259.176C22.9644 262.344 21.0444 264.84 19.4124 267.528C19.0284 268.104 18.5484 268.104 18.0684 267.624ZM56.1511 299.496C56.9191 299.4 57.4951 299.112 58.1671 298.824C59.0311 298.248 59.8951 297.864 60.9511 297.48C62.4871 296.616 63.8311 295.464 64.5031 293.64C65.2711 291.144 65.9431 288.648 65.9431 285.96C65.9431 284.328 66.1351 282.696 66.1351 281.16C66.0391 278.472 66.5191 275.784 66.1351 273.096C66.0391 271.848 65.5591 270.696 65.4631 269.448C65.1751 264.84 65.3671 260.232 64.2151 255.624C63.4471 252.744 63.4471 249.576 62.8711 246.504C62.1991 242.568 61.0471 241.416 57.8791 240.264C54.9991 239.304 52.1191 239.016 49.1431 238.056C47.6071 237.672 46.9351 238.056 46.1671 239.592C45.4951 240.936 44.9191 242.376 43.4791 243.144C43.1911 243.24 42.9991 243.72 42.8071 244.008C41.8471 245.544 41.0791 247.176 40.7911 249C40.0231 252.456 39.9271 256.104 38.6791 259.368C38.6791 259.464 38.5831 259.56 38.5831 259.656C38.2951 264.936 37.4311 270.12 37.7191 275.016V277.704C37.8151 283.368 38.5831 288.936 41.0791 294.216C42.3271 296.808 44.3431 298.632 47.1271 299.304C50.1031 300.072 53.1751 299.88 56.1511 299.496ZM53.4631 294.792C52.6951 293.928 52.3111 292.968 51.9271 291.912C51.0631 289.32 50.5831 286.632 50.1031 283.944C49.5271 280.392 49.4311 276.744 49.3351 273.096C49.3351 271.944 49.2391 270.696 49.1431 269.544C48.8551 266.472 49.7191 263.496 49.9111 260.424C50.1031 258.6 49.8151 256.68 50.3911 254.952L50.9671 252.744C51.3511 250.728 52.4071 249 52.6951 246.792C52.6951 246.504 52.8871 246.312 53.0791 246.12C53.2711 245.736 53.4631 245.16 53.9431 245.256C54.4231 245.256 54.4231 245.832 54.6151 246.216C56.1511 249.096 55.8631 252.36 56.1511 256.776C56.1511 260.136 56.2471 264.744 56.1511 269.352C56.0551 271.464 55.7671 273.576 55.7671 275.688C55.6711 281.352 55.0951 286.824 54.6151 292.392C54.5191 293.16 54.4231 293.928 54.2311 294.6C54.1351 295.176 53.7511 295.176 53.4631 294.792ZM85.2264 293.544C86.3784 293.448 87.6264 293.544 88.7784 293.352C90.5064 293.16 92.3304 293.064 93.4824 291.624C95.7864 289.32 97.5144 286.44 97.8024 283.176C98.1864 279.048 98.0904 275.112 98.8584 271.176C99.0504 270.12 98.9544 269.064 98.8584 268.104C98.7624 266.952 98.6664 265.704 98.8584 264.552C99.1464 261.384 99.4344 258.504 99.0504 255.624C98.9544 253.992 98.9544 252.648 99.2424 251.304C100.106 246.888 99.8184 242.376 100.298 237.864C100.49 235.848 99.3384 234.408 97.1304 233.448C96.4584 233.256 95.6904 232.872 94.9224 232.68C91.1784 231.912 89.4504 233.64 89.3544 236.52V237.096C89.6424 238.344 89.4504 239.688 89.5464 241.032C89.9304 243.816 89.8344 246.6 90.2184 249.48C90.3144 250.824 90.4104 252.168 90.3144 253.512C89.9304 256.776 90.0264 259.944 90.2184 263.208C90.4104 265.32 90.5064 267.624 90.1224 270.024C89.4504 273.768 88.6824 277.608 88.3944 281.352C88.2984 282.888 87.7224 284.328 86.8584 285.672C86.7624 285.768 86.6664 286.248 86.2824 286.152C85.9944 286.056 85.8984 285.768 85.8984 285.384C85.8984 285.192 85.8024 285.096 85.8024 284.904C84.7464 281.064 84.8424 277.128 84.7464 273.288C84.6504 267.048 83.8824 260.712 84.4584 254.568C84.2664 249.576 84.4584 244.776 83.6904 239.976C83.2104 236.616 81.8664 234.504 78.8904 232.968L77.2584 232.104C75.2424 231.144 73.0344 232.104 72.6504 234.216C72.3624 235.848 72.2664 237.384 71.9784 238.92C71.2104 244.392 70.7304 249.576 70.4424 254.952C69.9624 261.384 70.0584 267.816 70.8264 274.44C71.2104 278.376 71.7864 282.408 73.7064 286.152C75.3384 289.128 77.3544 291.816 81.1944 292.488C81.5784 292.584 82.0584 292.68 82.4424 292.968C83.3064 293.352 84.2664 293.544 85.2264 293.544ZM111.1 299.976C112.54 300.168 113.02 299.784 113.02 298.344C112.828 294.504 113.116 290.76 112.732 286.92C112.636 285.864 112.54 284.808 112.54 283.752C112.924 279.144 112.444 274.632 112.444 270.12C112.444 268.488 112.348 266.856 112.252 265.32C112.252 264.936 112.06 264.264 112.348 264.264C112.828 264.168 112.924 264.84 113.02 265.224C115.228 270.312 117.34 275.4 119.356 280.584C120.22 282.792 121.084 285 122.332 287.112C123.1 288.36 123.868 289.416 125.02 290.28C126.748 291.528 128.572 290.952 128.956 288.84C129.34 287.208 129.244 285.576 128.284 283.944C125.98 280.296 124.06 276.552 122.14 272.712L115.516 259.464L114.364 257.352C114.076 256.776 114.172 256.392 114.748 256.2C116.668 255.624 118.204 254.28 120.124 253.8C122.428 253.128 124.348 251.976 124.828 249.288C124.828 249 125.02 248.712 125.116 248.424C126.076 245.352 125.98 242.376 123.772 239.784C122.716 238.44 121.564 237.192 120.412 235.944C119.164 234.6 117.628 233.832 115.804 233.544C113.596 233.064 111.388 232.968 109.084 233.448C108.124 233.64 107.164 233.832 106.204 233.64C104.86 233.544 104.476 233.928 104.764 235.272C104.764 235.656 104.956 236.04 105.052 236.328C105.34 237.192 105.436 238.056 105.34 238.92C105.148 240.36 105.052 241.896 105.052 243.432C104.956 247.56 104.764 251.688 104.956 255.72C105.052 258.696 104.572 261.672 104.668 264.648C104.668 268.104 104.764 271.656 104.476 275.112C104.284 277.32 103.996 279.528 104.188 281.832C104.476 284.232 104.38 286.728 104.476 289.224C104.476 291.336 104.668 293.448 104.764 295.56C104.956 297.864 105.916 298.824 108.22 299.112C108.796 299.112 109.276 299.304 109.756 299.496C110.14 299.688 110.62 299.88 111.1 299.976ZM112.636 248.424C112.156 248.712 111.772 248.616 111.676 248.04C111.484 246.984 111.196 246.024 111.1 244.968C111.004 243.816 111.1 242.664 110.908 241.8C110.812 240.36 110.908 240.264 112.06 240.168C113.02 240.168 113.98 240.072 114.94 239.976C117.052 239.784 118.78 240.36 120.124 242.184C120.7 243.048 120.7 243.528 119.836 243.816C117.436 244.872 115.42 246.504 113.404 247.944C113.116 248.136 112.924 248.328 112.636 248.424ZM169.735 300.456C173.287 300.552 176.263 299.304 178.855 296.808C179.239 296.424 179.719 296.136 180.199 295.752C181.351 294.984 182.503 294.024 183.079 292.68C183.847 290.856 184.327 289.032 184.615 287.112C184.999 285 184.903 282.792 185.095 280.68C185.191 279.912 185.095 279.048 184.807 278.376C184.327 277.32 183.559 276.648 182.407 276.552C181.255 276.36 180.487 276.84 179.911 277.8C178.471 280.008 177.895 282.312 177.703 284.808C177.511 287.592 176.839 290.376 175.975 292.968C175.783 293.448 175.687 293.832 175.399 294.216C175.015 294.6 174.727 294.696 174.247 294.312C173.671 293.832 173.191 293.064 172.999 292.296C172.519 290.856 172.039 289.512 172.039 287.88C172.039 285.672 172.039 283.368 172.231 281.16C172.423 278.568 173.095 275.976 172.999 273.288C172.999 272.136 173.287 270.984 173.479 269.736C173.863 268.104 173.959 266.472 173.479 264.744C172.903 263.016 172.807 261.192 172.999 259.368C173.095 257.448 173.191 255.624 173.095 253.704C173.095 252.744 173.191 251.784 173.479 250.92C173.863 249.384 173.959 247.848 173.767 246.312C173.479 244.008 174.151 241.992 174.823 239.88C175.015 239.4 175.207 239.016 175.495 238.632C175.879 238.248 176.167 238.248 176.551 238.536C177.511 239.4 178.279 240.36 178.375 241.704L178.663 243.432C178.759 244.2 179.143 244.584 179.911 244.584C180.679 244.584 181.351 244.488 182.119 244.392C183.079 244.296 183.751 243.528 183.751 242.568V241.512C183.559 239.784 182.983 238.248 182.311 236.712C181.927 235.848 181.255 235.272 180.295 234.984C178.375 234.504 176.551 233.832 174.535 233.832C174.055 233.832 173.479 233.736 172.999 233.544C172.519 233.448 172.039 233.448 171.559 233.352C170.311 233.352 169.255 233.832 168.199 234.12C165.607 234.792 163.783 236.328 162.727 238.92C160.999 242.76 159.847 246.696 159.175 250.824C158.311 255.528 158.119 260.232 157.927 264.936C157.927 265.992 157.831 266.952 157.735 267.912C157.159 271.464 156.967 275.016 156.967 278.568C156.967 279.336 157.063 280.2 156.967 280.968C156.775 286.056 158.023 290.76 160.327 295.176C161.095 296.808 162.247 298.152 163.687 299.208C164.551 299.88 165.511 300.168 166.567 300.36C167.623 300.456 168.679 300.456 169.735 300.456ZM196.328 299.016C197.288 299.112 197.672 298.824 197.672 297.768C197.672 297 197.48 296.136 197.576 295.368C197.768 293.736 197.768 292.104 197.768 290.472C197.768 288.264 197.768 286.056 197.864 283.848C197.864 282.792 198.152 282.504 199.208 282.504H201.704C202.952 282.504 203.24 282.696 203.432 284.04C203.72 286.248 203.72 288.456 203.72 290.664C203.72 292.2 204.2 292.968 205.64 293.544C206.792 293.928 207.944 294.12 209.096 294.024C210.44 293.928 211.688 293.832 213.032 294.024C214.088 294.12 214.376 293.832 214.568 292.776C214.76 292.104 214.856 291.432 214.76 290.76C214.376 289.128 214.952 287.4 214.952 285.768C214.952 283.848 215.336 281.928 215.24 280.008C215.048 276.072 215.816 272.136 215.528 268.2C215.432 265.8 215.912 263.4 215.528 261C215.24 259.464 215.048 257.928 215.144 256.392C215.336 253.608 215.528 250.92 215.336 248.136C215.24 246.216 215.24 244.2 215.816 242.28C216.2 241.224 216.2 240.072 216.104 239.016C215.912 237.096 215.24 235.368 213.608 234.216C211.976 233.064 210.152 232.392 208.136 232.104C206.408 231.912 206.216 232.104 206.024 233.928C205.928 234.504 205.832 235.08 205.64 235.656C205.256 237.768 204.968 239.784 204.776 241.992C204.584 244.872 204.392 247.848 204.488 250.824C204.488 254.184 204.2 257.448 203.72 260.808C203.144 265.032 203.24 269.352 203.24 273.672C203.24 274.728 203.144 274.92 202.088 275.016C201.224 275.016 200.36 275.016 199.496 274.92C198.152 274.92 197.96 274.824 198.056 273.48C198.152 270.984 198.152 268.488 198.056 265.992C197.96 262.344 197.48 253.8 197.384 250.152C197.288 247.656 197.096 245.16 196.136 242.856C195.272 240.936 193.928 239.976 192.104 240.168C191.144 240.168 190.856 240.552 190.76 241.512L190.472 246.312C190.088 249.96 189.416 253.416 189.416 262.056C189.416 267.144 189.416 272.328 189.032 277.416C188.84 280.2 189.032 283.08 189.032 285.96V289.32C189.032 291.432 188.936 293.544 189.032 295.656C189.032 297.384 189.704 298.056 191.336 298.344C192.968 298.728 194.696 298.728 196.328 299.016ZM224.381 300.36C224.765 300.36 225.149 300.456 225.437 300.264C227.069 299.112 228.509 297.864 228.509 295.656C228.509 294.888 228.413 294.024 228.509 293.256C229.181 289.704 229.469 286.056 229.181 282.408C229.085 280.872 229.277 279.432 229.565 277.992C229.661 277.32 229.949 276.84 230.621 276.84C232.445 276.552 234.077 275.976 235.901 275.88C236.669 275.88 237.053 276.072 237.149 276.744L237.437 278.664C237.629 280.296 237.725 287.304 238.493 288.84C239.261 290.664 240.221 291.336 242.141 291.048C243.869 290.856 245.597 290.856 247.325 290.664C248.381 290.568 248.765 290.184 248.861 289.224C248.861 287.784 248.957 286.344 248.765 284.904C248.189 278.952 246.557 267.912 246.077 261.96C245.981 259.752 244.733 257.832 244.541 255.528C244.349 252.36 243.293 249.288 242.909 246.024C242.525 242.568 241.181 239.4 239.453 236.424C238.589 234.984 237.629 233.736 235.901 233.544C234.173 233.352 232.349 233.352 230.621 233.256C229.565 233.256 228.989 233.736 228.605 234.504C228.029 235.752 227.549 237 227.357 238.344C226.685 242.088 226.109 245.832 225.533 249.576C224.765 254.28 223.901 258.984 223.325 263.688C222.557 270.6 221.597 277.512 221.117 284.424C220.925 287.496 220.829 290.472 220.541 293.448C220.445 295.08 220.541 296.712 220.157 298.344C219.869 299.592 220.253 299.976 221.597 300.168C222.557 300.264 223.517 300.264 224.381 300.36ZM232.253 267.336C231.677 267.432 231.389 267.144 231.389 266.472V265.992C232.157 262.248 232.061 258.312 232.925 254.472C233.021 254.28 233.021 254.088 233.021 253.896C233.117 253.704 233.117 253.32 233.309 253.32C233.597 253.32 233.597 253.704 233.597 253.896L234.461 259.56L235.325 264.648C235.421 264.936 235.421 265.128 235.421 265.608C235.517 266.088 235.229 266.568 234.557 266.76C233.789 267.048 233.021 267.144 232.253 267.336ZM276.398 299.592C276.878 299.496 277.262 299.496 277.646 299.496C279.278 299.688 280.046 298.728 280.046 296.808C279.95 295.176 280.142 293.448 280.334 291.816C280.718 288.648 280.91 285.288 280.91 282.12C280.91 275.4 280.718 272.424 280.814 267.528C280.814 265.224 280.718 262.92 280.814 260.712C281.006 255.24 280.334 250.824 280.622 245.352C280.91 242.088 280.718 238.824 280.43 235.464C280.334 234.12 279.95 233.64 278.702 233.64C277.55 233.64 276.398 233.832 275.15 234.12C274.67 234.216 274.478 234.6 274.478 235.272C274.574 235.848 274.382 236.424 274.286 237C274.19 237.864 274.094 238.728 274.094 239.592C274.286 241.032 274.094 242.376 273.998 243.816C273.326 249.096 273.71 253.512 273.614 258.888C273.614 260.904 273.422 262.92 273.134 264.936C272.654 267.432 272.558 270.024 272.846 272.616C273.038 273.96 272.942 275.304 272.846 276.648C272.846 276.936 272.846 277.416 272.654 277.512C272.462 277.512 272.366 277.032 272.366 276.744L271.886 274.824C271.022 271.656 270.062 268.488 269.678 265.224C269.486 263.88 269.198 262.632 268.814 261.384C268.43 260.232 268.142 259.08 267.854 257.832C267.758 256.968 267.566 256.2 267.374 255.432C266.702 252.744 265.742 250.248 265.262 247.464C265.07 246.216 264.974 244.968 264.59 243.816C264.11 242.184 263.246 240.744 262.574 239.208C262.382 238.824 262.19 238.536 261.902 238.248L260.174 236.616C258.542 234.984 256.142 235.848 255.47 238.248C254.99 240.168 254.702 242.184 254.606 244.296C254.606 248.136 254.126 251.976 253.742 255.816C253.358 259.848 252.974 263.976 252.974 268.104C252.974 269.736 253.07 271.368 252.974 273C252.686 276.84 252.686 280.68 252.686 285.384L252.974 293.544C253.07 294.6 253.166 295.752 253.358 296.808C253.646 297.864 254.126 298.344 254.894 298.344C255.758 298.248 256.622 298.536 257.39 299.016C258.158 299.496 259.118 299.688 259.982 299.112C260.942 298.44 261.806 297.576 262.382 296.328V295.176C261.902 293.256 262.094 291.336 261.998 289.416C261.902 285.672 262.19 282.024 262.478 278.28L262.766 275.496C262.862 275.112 262.862 274.44 263.054 274.44C263.438 274.44 263.438 275.112 263.438 275.4C264.878 281.16 266.318 286.824 268.526 292.296C269.102 293.928 269.486 295.56 270.062 297.192C270.638 298.632 271.118 299.016 272.462 298.92C273.038 298.92 273.518 299.016 274.094 299.304C274.766 299.88 275.534 299.88 276.398 299.592ZM295.212 294.408C298.764 295.56 302.22 295.368 305.676 294.408C307.788 293.832 309.324 292.488 309.804 290.472C310.188 288.744 310.572 287.016 310.476 285.192C310.38 282.888 309.9 280.68 309.42 278.568C309.132 277.512 308.556 276.36 309.324 275.4C310.188 274.248 310.092 273.288 309.516 272.232C309.132 271.656 308.844 271.08 308.556 270.504C307.596 268.968 307.116 268.68 305.292 268.968C303.66 269.256 301.932 269.64 300.204 269.544C299.148 269.544 297.708 271.368 297.9 272.424C297.996 273.288 297.996 274.152 297.804 275.016C297.708 276.456 298.572 277.416 300.012 277.512H300.588C302.028 277.512 302.316 277.704 302.316 279.24V282.216C302.22 284.616 302.412 287.016 301.644 289.32C301.356 290.088 301.068 290.952 300.3 291.144C299.532 291.336 299.148 290.376 298.668 289.896C296.172 286.92 295.692 283.272 295.5 279.624C295.308 275.208 295.692 270.888 295.596 266.472C295.596 264.168 296.268 261.96 296.268 259.656C296.172 256.2 296.652 252.84 297.228 249.576C297.42 248.712 297.516 247.944 297.516 247.176C297.708 244.776 298.284 242.376 298.956 240.072C299.052 239.976 299.052 239.88 299.052 239.688C299.244 239.4 299.436 239.4 299.628 239.688C301.26 241.896 303.468 242.664 306.156 242.664C307.404 242.664 307.884 242.184 308.268 240.936C308.844 239.016 308.844 237.096 308.652 235.176C308.364 232.872 307.02 231.336 304.908 230.568C303.564 230.184 302.316 229.608 300.972 229.128C298.86 228.36 296.652 228.456 294.828 230.664C293.868 231.912 293.004 233.16 291.948 234.408C289.452 237.288 288.396 240.84 287.628 244.584C286.668 249 286.764 253.608 286.092 258.024C285.708 261.096 285.708 264.168 285.42 267.144C284.94 271.56 284.46 275.88 285.036 280.296C285.612 284.424 287.148 287.976 289.836 291.048C291.372 292.68 293.1 293.64 295.212 294.408ZM329.447 300.744C333.191 301.128 334.247 299.976 334.343 296.424V295.848C334.343 294.408 334.055 294.12 332.615 294.024C331.079 293.928 329.543 293.832 328.007 293.832C326.951 293.832 325.991 293.448 325.127 292.872C324.455 292.296 323.975 291.72 324.167 290.664C324.359 289.704 324.359 288.648 324.359 287.688C324.647 283.368 324.551 279.144 325.127 274.92C325.319 274.056 325.607 273.576 326.471 273.672C328.583 273.96 330.599 273.384 332.615 273C334.055 272.712 334.631 271.944 334.823 270.504C334.823 269.928 334.727 269.352 334.631 268.776C334.535 267.72 333.959 267.24 332.999 267.144C331.751 266.952 330.407 266.856 329.159 266.856H328.103H326.855C325.703 266.76 325.415 266.472 325.319 265.32C325.223 263.4 325.223 261.48 325.223 259.56C325.127 253.32 325.991 247.176 325.127 240.936C325.031 240.168 325.415 239.688 326.183 239.688C328.007 239.496 329.927 239.016 331.751 239.4C333.383 239.688 334.919 239.4 336.551 239.112C337.223 239.016 337.703 238.728 337.799 237.96C337.895 237.096 337.703 236.328 336.935 235.944C336.551 235.752 336.167 235.656 335.687 235.656C333.479 235.272 331.271 234.888 329.063 234.408C326.759 233.928 324.359 233.928 322.055 234.024C321.191 234.024 320.327 234.12 320.135 235.176C319.751 238.536 318.887 241.704 318.407 245.064C317.639 250.536 317.063 256.008 316.487 261.48C315.815 267.624 315.239 273.864 314.567 280.008C314.183 283.56 314.279 287.112 314.471 290.664C314.759 294.504 316.295 297 319.943 298.248C323.015 299.304 326.087 300.456 329.447 300.744ZM348.662 299.976C350.102 300.168 350.582 299.784 350.582 298.344C350.39 294.504 350.678 290.76 350.294 286.92C350.198 285.864 350.102 284.808 350.102 283.752C350.486 279.144 350.006 274.632 350.006 270.12C350.006 268.488 349.91 266.856 349.814 265.32C349.814 264.936 349.622 264.264 349.91 264.264C350.39 264.168 350.486 264.84 350.582 265.224C352.79 270.312 354.902 275.4 356.918 280.584C357.782 282.792 358.646 285 359.894 287.112C360.662 288.36 361.43 289.416 362.582 290.28C364.31 291.528 366.134 290.952 366.518 288.84C366.902 287.208 366.806 285.576 365.846 283.944C363.542 280.296 361.622 276.552 359.702 272.712L353.078 259.464L351.926 257.352C351.638 256.776 351.734 256.392 352.31 256.2C354.23 255.624 355.766 254.28 357.686 253.8C359.99 253.128 361.91 251.976 362.39 249.288C362.39 249 362.582 248.712 362.678 248.424C363.638 245.352 363.542 242.376 361.334 239.784C360.278 238.44 359.126 237.192 357.974 235.944C356.726 234.6 355.19 233.832 353.366 233.544C351.158 233.064 348.95 232.968 346.646 233.448C345.686 233.64 344.726 233.832 343.766 233.64C342.422 233.544 342.038 233.928 342.326 235.272C342.326 235.656 342.518 236.04 342.614 236.328C342.902 237.192 342.998 238.056 342.902 238.92C342.71 240.36 342.614 241.896 342.614 243.432C342.518 247.56 342.326 251.688 342.518 255.72C342.614 258.696 342.134 261.672 342.23 264.648C342.23 268.104 342.326 271.656 342.038 275.112C341.846 277.32 341.558 279.528 341.75 281.832C342.038 284.232 341.942 286.728 342.038 289.224C342.038 291.336 342.23 293.448 342.326 295.56C342.518 297.864 343.478 298.824 345.782 299.112C346.358 299.112 346.838 299.304 347.318 299.496C347.702 299.688 348.182 299.88 348.662 299.976ZM350.198 248.424C349.718 248.712 349.334 248.616 349.238 248.04C349.046 246.984 348.758 246.024 348.662 244.968C348.566 243.816 348.662 242.664 348.47 241.8C348.374 240.36 348.47 240.264 349.622 240.168C350.582 240.168 351.542 240.072 352.502 239.976C354.614 239.784 356.342 240.36 357.686 242.184C358.262 243.048 358.262 243.528 357.398 243.816C354.998 244.872 352.982 246.504 350.966 247.944C350.678 248.136 350.486 248.328 350.198 248.424ZM402.881 299.496C403.841 299.592 404.801 299.688 405.473 299.016C406.625 298.056 407.969 297.96 409.313 297.96C410.273 298.056 411.137 298.056 412.193 298.056C414.017 297.96 416.033 298.248 418.049 297.768C419.489 297.48 419.969 296.904 419.297 295.56C418.625 294.024 417.761 292.392 416.801 290.952C415.841 289.608 414.977 289.224 413.441 289.704C411.809 290.28 410.273 289.896 408.641 289.896C407.681 289.896 407.393 289.512 407.489 288.552C407.873 286.152 408.161 283.848 408.353 281.448C408.641 278.568 409.025 275.688 409.217 272.904C409.409 270.792 409.505 268.776 409.793 266.76C410.081 264.648 410.657 262.536 410.465 260.424C410.369 259.08 410.561 257.736 410.753 256.392C411.425 252.744 412.001 249.096 412.001 245.352C411.905 242.664 411.425 240.072 410.945 237.48C410.753 236.136 409.985 234.984 408.737 234.12C407.009 232.872 405.185 232.488 403.073 232.488C401.633 232.584 401.345 232.776 401.153 234.312C400.865 236.712 400.673 239.112 400.385 241.416C399.905 245.352 399.137 249.288 398.849 253.224C398.465 257.832 397.889 262.44 397.409 267.048C396.737 273.48 395.777 279.912 395.009 286.344C394.625 289.032 394.433 291.72 394.529 294.408C394.625 296.616 396.353 298.824 398.369 298.824C399.905 298.824 401.345 299.208 402.881 299.496ZM438.572 300.744C442.316 301.128 443.372 299.976 443.468 296.424V295.848C443.468 294.408 443.18 294.12 441.74 294.024C440.204 293.928 438.668 293.832 437.132 293.832C436.076 293.832 435.116 293.448 434.252 292.872C433.58 292.296 433.1 291.72 433.292 290.664C433.484 289.704 433.484 288.648 433.484 287.688C433.772 283.368 433.676 279.144 434.252 274.92C434.444 274.056 434.732 273.576 435.596 273.672C437.708 273.96 439.724 273.384 441.74 273C443.18 272.712 443.756 271.944 443.948 270.504C443.948 269.928 443.852 269.352 443.756 268.776C443.66 267.72 443.084 267.24 442.124 267.144C440.876 266.952 439.532 266.856 438.284 266.856H437.228H435.98C434.828 266.76 434.54 266.472 434.444 265.32C434.348 263.4 434.348 261.48 434.348 259.56C434.252 253.32 435.116 247.176 434.252 240.936C434.156 240.168 434.54 239.688 435.308 239.688C437.132 239.496 439.052 239.016 440.876 239.4C442.508 239.688 444.044 239.4 445.676 239.112C446.348 239.016 446.828 238.728 446.924 237.96C447.02 237.096 446.828 236.328 446.06 235.944C445.676 235.752 445.292 235.656 444.812 235.656C442.604 235.272 440.396 234.888 438.188 234.408C435.884 233.928 433.484 233.928 431.18 234.024C430.316 234.024 429.452 234.12 429.26 235.176C428.876 238.536 428.012 241.704 427.532 245.064C426.764 250.536 426.188 256.008 425.612 261.48C424.94 267.624 424.364 273.864 423.692 280.008C423.308 283.56 423.404 287.112 423.596 290.664C423.884 294.504 425.42 297 429.068 298.248C432.14 299.304 435.212 300.456 438.572 300.744ZM512.027 306.024C513.755 306.216 515.387 305.736 517.115 305.64C517.883 305.544 518.555 304.968 519.131 304.488C519.419 304.296 519.611 303.912 519.611 303.624C519.611 302.088 519.899 300.552 519.611 299.016L518.747 293.064C518.555 291.336 518.267 289.608 518.075 287.88C517.787 285.576 517.499 283.272 517.403 280.968C517.307 279.144 517.403 277.32 517.019 275.496C516.539 272.04 516.539 268.68 516.539 265.32L516.443 262.632C516.443 261.096 516.059 259.56 515.963 258.12C515.867 256.392 515.771 254.76 515.579 253.128C515.387 251.592 515.099 250.056 515.003 248.52C514.907 247.08 514.907 245.736 514.523 244.392C514.043 243.336 513.851 242.28 513.851 241.224C513.851 240.648 513.467 240.168 513.083 239.976C512.699 239.592 512.219 239.4 511.739 239.4C510.107 239.304 508.475 239.016 506.843 239.016C506.171 239.016 505.595 239.208 505.211 239.592C504.155 240.552 503.387 241.512 502.907 242.664C502.523 243.72 502.043 244.68 501.563 245.544C500.411 247.752 499.547 250.056 499.067 252.456C498.971 252.936 498.779 253.512 498.587 254.088C498.587 254.184 498.587 254.376 498.395 254.28C498.299 254.28 498.203 254.184 498.203 254.088C497.819 252.744 497.243 251.496 497.243 250.152C497.243 248.328 496.763 246.696 496.475 244.872C496.283 244.008 495.899 243.336 495.419 242.664C495.131 242.088 494.651 241.608 494.267 241.128C493.787 240.264 493.019 239.976 491.963 239.88C490.523 239.784 489.179 239.784 487.739 239.592C486.203 239.4 485.819 239.688 485.147 241.128C483.995 243.336 483.227 245.736 482.651 248.136C481.883 250.92 481.499 253.896 481.115 256.776C480.827 258.696 480.731 260.52 480.347 262.344C479.099 267.72 478.427 273.096 477.371 278.376C476.411 283.368 475.739 288.36 475.163 293.256C474.971 294.888 474.683 296.52 474.779 298.152C474.779 299.208 475.067 299.4 475.931 299.784C478.427 300.552 480.923 300.072 483.323 299.208C484.379 298.92 485.051 298.152 485.243 297.096C485.531 295.656 486.011 294.312 486.779 292.968L487.067 292.392C487.739 289.512 488.507 286.536 488.507 283.56C488.507 281.352 489.179 279.144 489.467 276.936C489.851 274.44 490.139 271.944 490.523 269.544C490.715 268.296 491.003 267.048 491.003 265.896L491.195 263.592C491.291 263.4 491.291 263.208 491.483 263.016C491.579 263.208 491.675 263.4 491.675 263.496C492.059 264.936 492.347 266.376 492.539 267.816C492.731 269.544 493.115 271.176 493.691 272.808C493.883 273.384 494.267 273.864 494.939 274.152C495.899 274.44 496.763 274.92 497.723 275.496C498.779 276.072 499.931 276.072 501.179 275.88C501.947 275.688 502.427 275.304 502.523 274.536C502.715 272.904 503.195 271.368 503.195 269.736C503.291 267.72 503.291 265.704 503.675 263.688L505.403 255.912C505.403 255.624 505.403 255.048 505.787 255.144C506.075 255.144 505.979 255.624 505.979 255.912V256.776L506.363 270.312L506.459 279.912C506.459 281.64 506.555 283.272 506.651 285L507.419 294.504C507.707 297 507.611 299.496 507.899 301.992C507.995 304.488 509.531 305.928 512.027 306.024ZM542.057 299.496C542.825 299.4 543.401 299.112 544.073 298.824C544.937 298.248 545.801 297.864 546.857 297.48C548.393 296.616 549.737 295.464 550.409 293.64C551.177 291.144 551.849 288.648 551.849 285.96C551.849 284.328 552.041 282.696 552.041 281.16C551.945 278.472 552.425 275.784 552.041 273.096C551.945 271.848 551.465 270.696 551.369 269.448C551.081 264.84 551.273 260.232 550.121 255.624C549.353 252.744 549.353 249.576 548.777 246.504C548.105 242.568 546.953 241.416 543.785 240.264C540.905 239.304 538.025 239.016 535.049 238.056C533.513 237.672 532.841 238.056 532.073 239.592C531.401 240.936 530.825 242.376 529.385 243.144C529.097 243.24 528.905 243.72 528.713 244.008C527.753 245.544 526.985 247.176 526.697 249C525.929 252.456 525.833 256.104 524.585 259.368C524.585 259.464 524.489 259.56 524.489 259.656C524.201 264.936 523.337 270.12 523.625 275.016V277.704C523.721 283.368 524.489 288.936 526.985 294.216C528.233 296.808 530.249 298.632 533.033 299.304C536.009 300.072 539.081 299.88 542.057 299.496ZM539.369 294.792C538.601 293.928 538.217 292.968 537.833 291.912C536.969 289.32 536.489 286.632 536.009 283.944C535.433 280.392 535.337 276.744 535.241 273.096C535.241 271.944 535.145 270.696 535.049 269.544C534.761 266.472 535.625 263.496 535.817 260.424C536.009 258.6 535.721 256.68 536.297 254.952L536.873 252.744C537.257 250.728 538.313 249 538.601 246.792C538.601 246.504 538.793 246.312 538.985 246.12C539.177 245.736 539.369 245.16 539.849 245.256C540.329 245.256 540.329 245.832 540.521 246.216C542.057 249.096 541.769 252.36 542.057 256.776C542.057 260.136 542.153 264.744 542.057 269.352C541.961 271.464 541.673 273.576 541.673 275.688C541.577 281.352 541.001 286.824 540.521 292.392C540.425 293.16 540.329 293.928 540.137 294.6C540.041 295.176 539.657 295.176 539.369 294.792ZM579.773 299.592C580.253 299.496 580.637 299.496 581.021 299.496C582.653 299.688 583.421 298.728 583.421 296.808C583.325 295.176 583.517 293.448 583.709 291.816C584.093 288.648 584.285 285.288 584.285 282.12C584.285 275.4 584.093 272.424 584.189 267.528C584.189 265.224 584.093 262.92 584.189 260.712C584.381 255.24 583.709 250.824 583.997 245.352C584.285 242.088 584.093 238.824 583.805 235.464C583.709 234.12 583.325 233.64 582.077 233.64C580.925 233.64 579.773 233.832 578.525 234.12C578.045 234.216 577.853 234.6 577.853 235.272C577.949 235.848 577.757 236.424 577.661 237C577.565 237.864 577.469 238.728 577.469 239.592C577.661 241.032 577.469 242.376 577.373 243.816C576.701 249.096 577.085 253.512 576.989 258.888C576.989 260.904 576.797 262.92 576.509 264.936C576.029 267.432 575.933 270.024 576.221 272.616C576.413 273.96 576.317 275.304 576.221 276.648C576.221 276.936 576.221 277.416 576.029 277.512C575.837 277.512 575.741 277.032 575.741 276.744L575.261 274.824C574.397 271.656 573.437 268.488 573.053 265.224C572.861 263.88 572.573 262.632 572.189 261.384C571.805 260.232 571.517 259.08 571.229 257.832C571.133 256.968 570.941 256.2 570.749 255.432C570.077 252.744 569.117 250.248 568.637 247.464C568.445 246.216 568.349 244.968 567.965 243.816C567.485 242.184 566.621 240.744 565.949 239.208C565.757 238.824 565.565 238.536 565.277 238.248L563.549 236.616C561.917 234.984 559.517 235.848 558.845 238.248C558.365 240.168 558.077 242.184 557.981 244.296C557.981 248.136 557.501 251.976 557.117 255.816C556.733 259.848 556.349 263.976 556.349 268.104C556.349 269.736 556.445 271.368 556.349 273C556.061 276.84 556.061 280.68 556.061 285.384L556.349 293.544C556.445 294.6 556.541 295.752 556.733 296.808C557.021 297.864 557.501 298.344 558.269 298.344C559.133 298.248 559.997 298.536 560.765 299.016C561.533 299.496 562.493 299.688 563.357 299.112C564.317 298.44 565.181 297.576 565.757 296.328V295.176C565.277 293.256 565.469 291.336 565.373 289.416C565.277 285.672 565.565 282.024 565.853 278.28L566.141 275.496C566.237 275.112 566.237 274.44 566.429 274.44C566.813 274.44 566.813 275.112 566.813 275.4C568.253 281.16 569.693 286.824 571.901 292.296C572.477 293.928 572.861 295.56 573.437 297.192C574.013 298.632 574.493 299.016 575.837 298.92C576.413 298.92 576.893 299.016 577.469 299.304C578.141 299.88 578.909 299.88 579.773 299.592ZM599.931 297.288C601.755 297 603.675 296.904 605.403 296.232C608.091 295.176 610.683 294.024 613.083 292.488C614.235 291.72 615.099 290.76 615.771 289.608C617.211 287.208 618.267 284.616 619.035 281.928C619.995 278.28 620.763 274.632 621.819 270.984C623.547 265.032 623.835 258.888 624.219 252.264C624.123 250.824 624.027 249.096 623.451 247.368C622.971 245.928 622.491 244.584 622.203 243.048C622.107 242.28 621.819 241.608 621.531 240.84C620.475 238.728 618.939 236.904 617.307 235.272C616.347 234.312 615.195 233.544 613.851 232.968C611.739 232.104 609.531 231.432 607.227 230.952C605.787 230.664 604.347 230.472 602.907 230.568C601.947 230.664 601.275 231.048 600.795 231.816C600.315 232.488 599.931 233.16 599.643 233.928C599.451 234.504 599.067 234.6 598.491 234.408C597.531 234.12 596.475 234.024 595.515 234.12C594.363 234.216 593.979 234.696 593.979 235.752C594.075 238.056 593.691 240.264 593.403 242.568C593.115 245.16 592.635 247.752 592.635 250.344C592.635 253.608 592.155 256.968 591.771 260.232C591.387 263.112 591.099 266.088 591.291 269.064C591.579 272.52 591.099 275.88 590.907 279.24C590.619 282.696 589.563 286.056 588.507 289.32C588.123 290.664 587.931 292.008 588.315 293.352C588.411 294.12 588.699 294.792 588.603 295.56C588.507 296.04 588.795 296.424 589.275 296.424C590.235 296.52 591.099 297 591.963 297.096C594.651 297.288 597.243 297.672 599.931 297.288ZM599.259 291.912C599.163 291.816 599.259 291.624 599.355 291.432C599.643 290.184 599.931 288.936 600.123 287.784C600.219 287.4 600.219 287.016 600.411 286.632C601.659 283.944 601.851 281.064 602.043 278.184C602.139 276.84 602.139 275.592 602.139 274.248C602.139 273.288 602.235 272.424 602.523 271.56C603.099 269.544 603.483 267.624 603.675 265.512C603.771 264.456 604.059 263.496 604.155 262.536C604.347 260.616 604.251 258.696 603.963 256.776C603.867 256.104 603.867 255.336 603.963 254.568C604.155 252.36 603.771 250.056 603.675 247.848C603.579 247.272 603.387 246.792 603.291 246.216C603.003 245.064 603.003 244.008 604.251 243.336C604.539 243.144 604.827 242.856 605.019 242.568C605.595 241.224 606.459 240.072 607.035 238.728C607.323 237.864 607.707 237.096 608.187 236.328C608.955 235.272 609.339 235.272 610.011 236.328C610.971 237.672 611.739 239.112 612.315 240.648C612.699 241.896 612.891 243.048 612.987 244.296C612.987 246.12 613.275 247.848 613.755 249.48C614.043 250.728 614.331 252.072 614.235 253.32C614.139 255.528 614.043 257.736 613.851 259.944C613.659 262.632 613.467 265.224 613.083 267.912C612.795 270.504 611.931 273.096 611.163 275.592C610.299 278.28 609.435 280.968 608.379 283.656L607.803 285C606.267 288.648 603.483 290.76 599.835 291.912C599.643 291.912 599.451 292.104 599.259 291.912ZM643.229 300.744C646.973 301.128 648.029 299.976 648.125 296.424V295.848C648.125 294.408 647.837 294.12 646.397 294.024C644.861 293.928 643.325 293.832 641.789 293.832C640.733 293.832 639.773 293.448 638.909 292.872C638.237 292.296 637.757 291.72 637.949 290.664C638.141 289.704 638.141 288.648 638.141 287.688C638.429 283.368 638.333 279.144 638.909 274.92C639.101 274.056 639.389 273.576 640.253 273.672C642.365 273.96 644.381 273.384 646.397 273C647.837 272.712 648.413 271.944 648.605 270.504C648.605 269.928 648.509 269.352 648.413 268.776C648.317 267.72 647.741 267.24 646.781 267.144C645.533 266.952 644.189 266.856 642.941 266.856H641.885H640.637C639.485 266.76 639.197 266.472 639.101 265.32C639.005 263.4 639.005 261.48 639.005 259.56C638.909 253.32 639.773 247.176 638.909 240.936C638.813 240.168 639.197 239.688 639.965 239.688C641.789 239.496 643.709 239.016 645.533 239.4C647.165 239.688 648.701 239.4 650.333 239.112C651.005 239.016 651.485 238.728 651.581 237.96C651.677 237.096 651.485 236.328 650.717 235.944C650.333 235.752 649.949 235.656 649.469 235.656C647.261 235.272 645.053 234.888 642.845 234.408C640.541 233.928 638.141 233.928 635.837 234.024C634.973 234.024 634.109 234.12 633.917 235.176C633.533 238.536 632.669 241.704 632.189 245.064C631.421 250.536 630.845 256.008 630.269 261.48C629.597 267.624 629.021 273.864 628.349 280.008C627.965 283.56 628.061 287.112 628.253 290.664C628.541 294.504 630.077 297 633.725 298.248C636.797 299.304 639.869 300.456 643.229 300.744Z" fill="#3F7D20"/>
</g>
<defs>
<filter id="filter0_d_304_2139" x="0.404297" y="0.375977" width="657.272" height="311.84" filterUnits="userSpaceOnUse" color-interpolation-filters="sRGB">
<feFlood flood-opacity="0" result="BackgroundImageFix"/>
<feColorMatrix in="SourceAlpha" type="matrix" values="0 0 0 0 0 0 0 0 0 0 0 0 0 0 0 0 0 0 127 0" result="hardAlpha"/>
<feOffset dx="4" dy="4"/>
<feGaussianBlur stdDeviation="1"/>
<feComposite in2="hardAlpha" operator="out"/>
<feColorMatrix type="matrix" values="0 0 0 0 1 0 0 0 0 1 0 0 0 0 1 0 0 0 1 0"/>
<feBlend mode="normal" in2="BackgroundImageFix" result="effect1_dropShadow_304_2139"/>
<feBlend mode="normal" in="SourceGraphic" in2="effect1_dropShadow_304_2139" result="shape"/>
</filter>
</defs>
</svg>
