<svg width="1200" height="175" viewBox="0 0 1200 175" fill="none" xmlns="http://www.w3.org/2000/svg">
<path fill-rule="evenodd" clip-rule="evenodd" d="M0 138.664L50 132.664C100 126.664 200 114.664 300 84.664C400 54.664 500 6.66403 600 0.664032C700 -5.33597 800 30.664 900 54.664C1000 78.664 1100 90.664 1150 96.664L1200 102.664V174.664H1150C1100 174.664 1000 174.664 900 174.664C800 174.664 700 174.664 600 174.664C500 174.664 400 174.664 300 174.664C200 174.664 100 174.664 50 174.664H0V138.664Z" fill="#86CE3A"/>
</svg>
